<mxfile host="app.diagrams.net" modified="2024-02-11T12:37:24.736Z" agent="Mozilla/5.0 (Windows NT 10.0; Win64; x64) AppleWebKit/537.36 (KHTML, like Gecko) Chrome/121.0.0.0 Safari/537.36" etag="c-DzlkVjphkUREhU_XSR" version="23.1.2" type="device">
  <diagram name="Page-1" id="iH583JqkN9LJal5cwoP3">
    <mxGraphModel dx="2950" dy="1166" grid="1" gridSize="10" guides="1" tooltips="1" connect="1" arrows="1" fold="1" page="1" pageScale="1" pageWidth="850" pageHeight="1100" math="0" shadow="0">
      <root>
        <mxCell id="0" />
        <mxCell id="1" parent="0" />
        <UserObject label="" plantUmlData="{&quot;data&quot;:&quot;@startuml\n\nclass Car {\n  -hasAutomaticEmergencyBraking: boolean\n  -hasAirBags: boolean\n  -hasAntiLockBrakes: boolean\n  -hasElectronicStabilityControl: boolean\n  -hasBackupCamera: boolean\n  -heightGreaterThanAverage: boolean\n  -weightGreaterThanAverage: boolean\n  -AVERAGE_CAR_WEIGHT: double\n  -AVERAGE_CAR_HEIGHT: double\n  -AUTOMATIC_EMERGENCY_BRAKING_SAFETY_RATING: double\n  -AIR_BAGS_SAFETY_RATING: double\n  -ANTI_LOCK_BRAKES_SAFETY_RATING: double\n  -ELECTRONIC_STABILITY_CONTROL_SAFETY_RATING: double\n  -BACKUP_CAMERA_SAFETY_RATING: double\n  -CAR_WEIGHT_SAFETY_RATING: double\n  -CAR_HEIGHT_SAFETY_RATING: double\n  +Car()\n  +calculateSafetyRating(): double\n  +safetyInformation(): void\n}\n\nclass Motorcycle {\n  -hasAntiLockBrakes: boolean\n  -hasHelmetAirbags: boolean\n  -hasTractionControl: boolean\n  -hasStabilityControl: boolean\n  -hasRearviewCamera: boolean\n  -heightGreaterThanAverage: boolean\n  -weightGreaterThanAverage: boolean\n  -AVERAGE_MOTORCYCLE_WEIGHT: double\n  -AVERAGE_MOTORCYCLE_HEIGHT: double\n  -HELMET_AIRBAGS_SAFETY_RATING: double\n  -STABILITY_CONTROL_SAFETY_RATING: double\n  -TRACTION_CONTROL_SAFETY_RATING: double\n  -ANTI_LOCK_BRAKES_SAFETY_RATING: double\n  -REARVIEW_CAMERA_SAFETY_RATING: double\n  -MOTORCYCLE_WEIGHT_SAFETY_RATING: double\n  -MOTORCYCLE_HEIGHT_SAFETY_RATING: double\n  +Motorcycle()\n  +calculateSafetyRating(): double\n  +safetyInformation(): void\n}\n\nclass Bicycle {\n  -hasReflectors: boolean\n  -hasBells: boolean\n  -hasLights: boolean\n  -hasHelmet: boolean\n  -REFLECTORS_SAFETY_RATING: double\n  -BELLS_SAFETY_RATING: double\n  -LIGHTS_SAFETY_RATING: double\n  -HELMET_SAFETY_RATING: double\n  +Bicycle()\n  +calculateSafetyRating(): double\n  +safetyInformation(): void\n}\n\ninterface VehicleFactory {\n  +createVehicle(): Vehicle\n}\n\nclass UserInterface {\n  +main(args: String[]): void\n}\n\nclass CarFactory {\n  +createVehicle(): Vehicle\n}\n\nclass MotorcycleFactory {\n  +createVehicle(): Vehicle\n}\n\nclass BicycleFactory {\n  +createVehicle(): Vehicle\n}\n\nabstract class Vehicle {\n  -color: String\n  -model: String\n  -maxSpeed: int\n  -weight: double\n  -height: double\n  +setVehicleAttributes(color: String, model: String, maxSpeed: int): void\n  +setVehicleAttributes(color: String, model: String, maxSpeed: int, weight: double, height: double): void\n  +getColor(): String\n  +getModel(): String\n  +getMaxSpeed(): int\n  +getWeight(): double\n  +getHeight(): double\n  +calculateSafetyRating(): double\n  +safetyInformation(): void\n}\n\nUserInterface --&gt; VehicleFactory : Uses &gt;\nVehicleFactory &lt;|.. CarFactory : Implements\nVehicleFactory &lt;|.. MotorcycleFactory : Implements\nVehicleFactory &lt;|.. BicycleFactory : Implements\nCar &lt;|.. Vehicle : Implements\nMotorcycle &lt;|.. Vehicle : Implements\nBicycle &lt;|.. Vehicle : Implements\nCarFactory ..&gt; Car : Creates\nMotorcycleFactory ..&gt; Motorcycle : Creates\nBicycleFactory ..&gt; Bicycle : Creates\n\n@enduml&quot;,&quot;format&quot;:&quot;svg&quot;}" id="4RSiHmn1QXJimucKY8n2-1">
          <mxCell style="shape=image;noLabel=1;verticalAlign=top;aspect=fixed;imageAspect=0;image=data:image/svg+xml,PD94bWwgdmVyc2lvbj0iMS4wIiBlbmNvZGluZz0idXMtYXNjaWkiIHN0YW5kYWxvbmU9Im5vIj8+PHN2ZyB4bWxucz0iaHR0cDovL3d3dy53My5vcmcvMjAwMC9zdmciIHhtbG5zOnhsaW5rPSJodHRwOi8vd3d3LnczLm9yZy8xOTk5L3hsaW5rIiBjb250ZW50U3R5bGVUeXBlPSJ0ZXh0L2NzcyIgaGVpZ2h0PSIxMDkzcHgiIHByZXNlcnZlQXNwZWN0UmF0aW89Im5vbmUiIHN0eWxlPSJ3aWR0aDoxMDEwcHg7aGVpZ2h0OjEwOTNweDtiYWNrZ3JvdW5kOiNGRkZGRkY7IiB2ZXJzaW9uPSIxLjEiIHZpZXdCb3g9IjAgMCAxMDEwIDEwOTMiIHdpZHRoPSIxMDEwcHgiIHpvb21BbmRQYW49Im1hZ25pZnkiPjxkZWZzLz48Zz48IS0tY2xhc3MgQ2FyLS0+PGcgaWQ9ImVsZW1fQ2FyIj48cmVjdCBjb2RlTGluZT0iMSIgZmlsbD0iI0YxRjFGMSIgaGVpZ2h0PSIzMzIuNzAzMSIgaWQ9IkNhciIgcng9IjIuNSIgcnk9IjIuNSIgc3R5bGU9InN0cm9rZTojMTgxODE4O3N0cm9rZS13aWR0aDowLjU7IiB3aWR0aD0iMzc2IiB4PSI3IiB5PSI0MjEiLz48ZWxsaXBzZSBjeD0iMTgwLjI1IiBjeT0iNDM3IiBmaWxsPSIjQUREMUIyIiByeD0iMTEiIHJ5PSIxMSIgc3R5bGU9InN0cm9rZTojMTgxODE4O3N0cm9rZS13aWR0aDoxLjA7Ii8+PHBhdGggZD0iTTE3Ny44NzUsNDQxLjI1IEwxNzcuODc1LDQ0MyBMMTgyLjgxMjUsNDQzIEwxODIuODEyNSw0NDEuMjUgTDE3Ny44NzUsNDQxLjI1IFogTTE3OC41NjI1LDQ0MS45Mzc1IFExNzguNTYyNSw0NDEuOTM3NSAxNzguNTYyNSw0MzIuNzUgTDE3Ni44MTI1LDQzMi43NSBRMTc2LjgxMjUsNDMyLjc1IDE3Ni44MTI1LDQ0MS45Mzc1IEwxNzguNTYyNSw0NDEuOTM3NSBaIE0xODIuMTI1LDQ0MS45Mzc1IEwxODMuODc1LDQ0MS45Mzc1IFExODMuODc1LDQ0MS45Mzc1IDE4My44NzUsNDM5LjEyNSBMMTgyLjEyNSw0MzkuMTI1IFExODIuMTI1LDQzOS4xMjUgMTgyLjEyNSw0NDEuOTM3NSBaIE0xODIuMTI1LDQzMi43NSBRMTgyLjEyNSw0MzIuNzUgMTgyLjEyNSw0MzUuNTYyNSBMMTgzLjg3NSw0MzUuNTYyNSBRMTgzLjg3NSw0MzUuNTYyNSAxODMuODc1LDQzMi43NSBMMTgyLjEyNSw0MzIuNzUgWiBNMTc3Ljg3NSw0MzMuNDM3NSBMMTgyLjgxMjUsNDMzLjQzNzUgTDE4Mi44MTI1LDQzMS42ODc1IEwxNzcuODc1LDQzMS42ODc1IEwxNzcuODc1LDQzMy40Mzc1IFogIiBmaWxsPSIjMDAwMDAwIi8+PHRleHQgZmlsbD0iIzAwMDAwMCIgZm9udC1mYW1pbHk9InNhbnMtc2VyaWYiIGZvbnQtc2l6ZT0iMTQiIGxlbmd0aEFkanVzdD0ic3BhY2luZyIgdGV4dExlbmd0aD0iMjEiIHg9IjIwMC43NSIgeT0iNDQyLjc0MjIiPkNhcjwvdGV4dD48bGluZSBzdHlsZT0ic3Ryb2tlOiMxODE4MTg7c3Ryb2tlLXdpZHRoOjAuNTsiIHgxPSI4IiB4Mj0iMzgyIiB5MT0iNDUzIiB5Mj0iNDUzIi8+PHJlY3QgZmlsbD0ibm9uZSIgaGVpZ2h0PSI2IiBzdHlsZT0ic3Ryb2tlOiNDODI5MzA7c3Ryb2tlLXdpZHRoOjEuMDsiIHdpZHRoPSI2IiB4PSIxNSIgeT0iNDYyLjk5MjIiLz48dGV4dCBmaWxsPSIjMDAwMDAwIiBmb250LWZhbWlseT0ic2Fucy1zZXJpZiIgZm9udC1zaXplPSIxNCIgbGVuZ3RoQWRqdXN0PSJzcGFjaW5nIiB0ZXh0TGVuZ3RoPSIyNjEiIHg9IjI3IiB5PSI0NzAuMjM0NCI+aGFzQXV0b21hdGljRW1lcmdlbmN5QnJha2luZzogYm9vbGVhbjwvdGV4dD48cmVjdCBmaWxsPSJub25lIiBoZWlnaHQ9IjYiIHN0eWxlPSJzdHJva2U6I0M4MjkzMDtzdHJva2Utd2lkdGg6MS4wOyIgd2lkdGg9IjYiIHg9IjE1IiB5PSI0NzcuOTc2NiIvPjx0ZXh0IGZpbGw9IiMwMDAwMDAiIGZvbnQtZmFtaWx5PSJzYW5zLXNlcmlmIiBmb250LXNpemU9IjE0IiBsZW5ndGhBZGp1c3Q9InNwYWNpbmciIHRleHRMZW5ndGg9IjEzMyIgeD0iMjciIHk9IjQ4NS4yMTg4Ij5oYXNBaXJCYWdzOiBib29sZWFuPC90ZXh0PjxyZWN0IGZpbGw9Im5vbmUiIGhlaWdodD0iNiIgc3R5bGU9InN0cm9rZTojQzgyOTMwO3N0cm9rZS13aWR0aDoxLjA7IiB3aWR0aD0iNiIgeD0iMTUiIHk9IjQ5Mi45NjA5Ii8+PHRleHQgZmlsbD0iIzAwMDAwMCIgZm9udC1mYW1pbHk9InNhbnMtc2VyaWYiIGZvbnQtc2l6ZT0iMTQiIGxlbmd0aEFkanVzdD0ic3BhY2luZyIgdGV4dExlbmd0aD0iMTgyIiB4PSIyNyIgeT0iNTAwLjIwMzEiPmhhc0FudGlMb2NrQnJha2VzOiBib29sZWFuPC90ZXh0PjxyZWN0IGZpbGw9Im5vbmUiIGhlaWdodD0iNiIgc3R5bGU9InN0cm9rZTojQzgyOTMwO3N0cm9rZS13aWR0aDoxLjA7IiB3aWR0aD0iNiIgeD0iMTUiIHk9IjUwNy45NDUzIi8+PHRleHQgZmlsbD0iIzAwMDAwMCIgZm9udC1mYW1pbHk9InNhbnMtc2VyaWYiIGZvbnQtc2l6ZT0iMTQiIGxlbmd0aEFkanVzdD0ic3BhY2luZyIgdGV4dExlbmd0aD0iMjY2IiB4PSIyNyIgeT0iNTE1LjE4NzUiPmhhc0VsZWN0cm9uaWNTdGFiaWxpdHlDb250cm9sOiBib29sZWFuPC90ZXh0PjxyZWN0IGZpbGw9Im5vbmUiIGhlaWdodD0iNiIgc3R5bGU9InN0cm9rZTojQzgyOTMwO3N0cm9rZS13aWR0aDoxLjA7IiB3aWR0aD0iNiIgeD0iMTUiIHk9IjUyMi45Mjk3Ii8+PHRleHQgZmlsbD0iIzAwMDAwMCIgZm9udC1mYW1pbHk9InNhbnMtc2VyaWYiIGZvbnQtc2l6ZT0iMTQiIGxlbmd0aEFkanVzdD0ic3BhY2luZyIgdGV4dExlbmd0aD0iMTY5IiB4PSIyNyIgeT0iNTMwLjE3MTkiPmhhc0JhY2t1cENhbWVyYTogYm9vbGVhbjwvdGV4dD48cmVjdCBmaWxsPSJub25lIiBoZWlnaHQ9IjYiIHN0eWxlPSJzdHJva2U6I0M4MjkzMDtzdHJva2Utd2lkdGg6MS4wOyIgd2lkdGg9IjYiIHg9IjE1IiB5PSI1MzcuOTE0MSIvPjx0ZXh0IGZpbGw9IiMwMDAwMDAiIGZvbnQtZmFtaWx5PSJzYW5zLXNlcmlmIiBmb250LXNpemU9IjE0IiBsZW5ndGhBZGp1c3Q9InNwYWNpbmciIHRleHRMZW5ndGg9IjIzMSIgeD0iMjciIHk9IjU0NS4xNTYzIj5oZWlnaHRHcmVhdGVyVGhhbkF2ZXJhZ2U6IGJvb2xlYW48L3RleHQ+PHJlY3QgZmlsbD0ibm9uZSIgaGVpZ2h0PSI2IiBzdHlsZT0ic3Ryb2tlOiNDODI5MzA7c3Ryb2tlLXdpZHRoOjEuMDsiIHdpZHRoPSI2IiB4PSIxNSIgeT0iNTUyLjg5ODQiLz48dGV4dCBmaWxsPSIjMDAwMDAwIiBmb250LWZhbWlseT0ic2Fucy1zZXJpZiIgZm9udC1zaXplPSIxNCIgbGVuZ3RoQWRqdXN0PSJzcGFjaW5nIiB0ZXh0TGVuZ3RoPSIyMzIiIHg9IjI3IiB5PSI1NjAuMTQwNiI+d2VpZ2h0R3JlYXRlclRoYW5BdmVyYWdlOiBib29sZWFuPC90ZXh0PjxyZWN0IGZpbGw9Im5vbmUiIGhlaWdodD0iNiIgc3R5bGU9InN0cm9rZTojQzgyOTMwO3N0cm9rZS13aWR0aDoxLjA7IiB3aWR0aD0iNiIgeD0iMTUiIHk9IjU2Ny44ODI4Ii8+PHRleHQgZmlsbD0iIzAwMDAwMCIgZm9udC1mYW1pbHk9InNhbnMtc2VyaWYiIGZvbnQtc2l6ZT0iMTQiIGxlbmd0aEFkanVzdD0ic3BhY2luZyIgdGV4dExlbmd0aD0iMTgyIiB4PSIyNyIgeT0iNTc1LjEyNSI+QVZFUkFHRV9DQVJfV0VJR0hUOiBkb3VibGU8L3RleHQ+PHJlY3QgZmlsbD0ibm9uZSIgaGVpZ2h0PSI2IiBzdHlsZT0ic3Ryb2tlOiNDODI5MzA7c3Ryb2tlLXdpZHRoOjEuMDsiIHdpZHRoPSI2IiB4PSIxNSIgeT0iNTgyLjg2NzIiLz48dGV4dCBmaWxsPSIjMDAwMDAwIiBmb250LWZhbWlseT0ic2Fucy1zZXJpZiIgZm9udC1zaXplPSIxNCIgbGVuZ3RoQWRqdXN0PSJzcGFjaW5nIiB0ZXh0TGVuZ3RoPSIxODIiIHg9IjI3IiB5PSI1OTAuMTA5NCI+QVZFUkFHRV9DQVJfSEVJR0hUOiBkb3VibGU8L3RleHQ+PHJlY3QgZmlsbD0ibm9uZSIgaGVpZ2h0PSI2IiBzdHlsZT0ic3Ryb2tlOiNDODI5MzA7c3Ryb2tlLXdpZHRoOjEuMDsiIHdpZHRoPSI2IiB4PSIxNSIgeT0iNTk3Ljg1MTYiLz48dGV4dCBmaWxsPSIjMDAwMDAwIiBmb250LWZhbWlseT0ic2Fucy1zZXJpZiIgZm9udC1zaXplPSIxNCIgbGVuZ3RoQWRqdXN0PSJzcGFjaW5nIiB0ZXh0TGVuZ3RoPSIzNDMiIHg9IjI3IiB5PSI2MDUuMDkzOCI+QVVUT01BVElDX0VNRVJHRU5DWV9CUkFLSU5HX1NBRkVUWV9SQVRJTkc6IGRvdWJsZTwvdGV4dD48cmVjdCBmaWxsPSJub25lIiBoZWlnaHQ9IjYiIHN0eWxlPSJzdHJva2U6I0M4MjkzMDtzdHJva2Utd2lkdGg6MS4wOyIgd2lkdGg9IjYiIHg9IjE1IiB5PSI2MTIuODM1OSIvPjx0ZXh0IGZpbGw9IiMwMDAwMDAiIGZvbnQtZmFtaWx5PSJzYW5zLXNlcmlmIiBmb250LXNpemU9IjE0IiBsZW5ndGhBZGp1c3Q9InNwYWNpbmciIHRleHRMZW5ndGg9IjIxMCIgeD0iMjciIHk9IjYyMC4wNzgxIj5BSVJfQkFHU19TQUZFVFlfUkFUSU5HOiBkb3VibGU8L3RleHQ+PHJlY3QgZmlsbD0ibm9uZSIgaGVpZ2h0PSI2IiBzdHlsZT0ic3Ryb2tlOiNDODI5MzA7c3Ryb2tlLXdpZHRoOjEuMDsiIHdpZHRoPSI2IiB4PSIxNSIgeT0iNjI3LjgyMDMiLz48dGV4dCBmaWxsPSIjMDAwMDAwIiBmb250LWZhbWlseT0ic2Fucy1zZXJpZiIgZm9udC1zaXplPSIxNCIgbGVuZ3RoQWRqdXN0PSJzcGFjaW5nIiB0ZXh0TGVuZ3RoPSIyNjYiIHg9IjI3IiB5PSI2MzUuMDYyNSI+QU5USV9MT0NLX0JSQUtFU19TQUZFVFlfUkFUSU5HOiBkb3VibGU8L3RleHQ+PHJlY3QgZmlsbD0ibm9uZSIgaGVpZ2h0PSI2IiBzdHlsZT0ic3Ryb2tlOiNDODI5MzA7c3Ryb2tlLXdpZHRoOjEuMDsiIHdpZHRoPSI2IiB4PSIxNSIgeT0iNjQyLjgwNDciLz48dGV4dCBmaWxsPSIjMDAwMDAwIiBmb250LWZhbWlseT0ic2Fucy1zZXJpZiIgZm9udC1zaXplPSIxNCIgbGVuZ3RoQWRqdXN0PSJzcGFjaW5nIiB0ZXh0TGVuZ3RoPSIzNTAiIHg9IjI3IiB5PSI2NTAuMDQ2OSI+RUxFQ1RST05JQ19TVEFCSUxJVFlfQ09OVFJPTF9TQUZFVFlfUkFUSU5HOiBkb3VibGU8L3RleHQ+PHJlY3QgZmlsbD0ibm9uZSIgaGVpZ2h0PSI2IiBzdHlsZT0ic3Ryb2tlOiNDODI5MzA7c3Ryb2tlLXdpZHRoOjEuMDsiIHdpZHRoPSI2IiB4PSIxNSIgeT0iNjU3Ljc4OTEiLz48dGV4dCBmaWxsPSIjMDAwMDAwIiBmb250LWZhbWlseT0ic2Fucy1zZXJpZiIgZm9udC1zaXplPSIxNCIgbGVuZ3RoQWRqdXN0PSJzcGFjaW5nIiB0ZXh0TGVuZ3RoPSIyNDUiIHg9IjI3IiB5PSI2NjUuMDMxMyI+QkFDS1VQX0NBTUVSQV9TQUZFVFlfUkFUSU5HOiBkb3VibGU8L3RleHQ+PHJlY3QgZmlsbD0ibm9uZSIgaGVpZ2h0PSI2IiBzdHlsZT0ic3Ryb2tlOiNDODI5MzA7c3Ryb2tlLXdpZHRoOjEuMDsiIHdpZHRoPSI2IiB4PSIxNSIgeT0iNjcyLjc3MzQiLz48dGV4dCBmaWxsPSIjMDAwMDAwIiBmb250LWZhbWlseT0ic2Fucy1zZXJpZiIgZm9udC1zaXplPSIxNCIgbGVuZ3RoQWRqdXN0PSJzcGFjaW5nIiB0ZXh0TGVuZ3RoPSIyMjQiIHg9IjI3IiB5PSI2ODAuMDE1NiI+Q0FSX1dFSUdIVF9TQUZFVFlfUkFUSU5HOiBkb3VibGU8L3RleHQ+PHJlY3QgZmlsbD0ibm9uZSIgaGVpZ2h0PSI2IiBzdHlsZT0ic3Ryb2tlOiNDODI5MzA7c3Ryb2tlLXdpZHRoOjEuMDsiIHdpZHRoPSI2IiB4PSIxNSIgeT0iNjg3Ljc1NzgiLz48dGV4dCBmaWxsPSIjMDAwMDAwIiBmb250LWZhbWlseT0ic2Fucy1zZXJpZiIgZm9udC1zaXplPSIxNCIgbGVuZ3RoQWRqdXN0PSJzcGFjaW5nIiB0ZXh0TGVuZ3RoPSIyMjQiIHg9IjI3IiB5PSI2OTUiPkNBUl9IRUlHSFRfU0FGRVRZX1JBVElORzogZG91YmxlPC90ZXh0PjxsaW5lIHN0eWxlPSJzdHJva2U6IzE4MTgxODtzdHJva2Utd2lkdGg6MC41OyIgeDE9IjgiIHgyPSIzODIiIHkxPSI3MDAuNzUiIHkyPSI3MDAuNzUiLz48ZWxsaXBzZSBjeD0iMTgiIGN5PSI3MTMuNzQyMiIgZmlsbD0iIzg0QkU4NCIgcng9IjMiIHJ5PSIzIiBzdHlsZT0ic3Ryb2tlOiMwMzgwNDg7c3Ryb2tlLXdpZHRoOjEuMDsiLz48dGV4dCBmaWxsPSIjMDAwMDAwIiBmb250LWZhbWlseT0ic2Fucy1zZXJpZiIgZm9udC1zaXplPSIxNCIgbGVuZ3RoQWRqdXN0PSJzcGFjaW5nIiB0ZXh0TGVuZ3RoPSIzNyIgeD0iMjciIHk9IjcxNy45ODQ0Ij5DYXIoKTwvdGV4dD48ZWxsaXBzZSBjeD0iMTgiIGN5PSI3MjguNzI2NiIgZmlsbD0iIzg0QkU4NCIgcng9IjMiIHJ5PSIzIiBzdHlsZT0ic3Ryb2tlOiMwMzgwNDg7c3Ryb2tlLXdpZHRoOjEuMDsiLz48dGV4dCBmaWxsPSIjMDAwMDAwIiBmb250LWZhbWlseT0ic2Fucy1zZXJpZiIgZm9udC1zaXplPSIxNCIgbGVuZ3RoQWRqdXN0PSJzcGFjaW5nIiB0ZXh0TGVuZ3RoPSIyMTkiIHg9IjI3IiB5PSI3MzIuOTY4OCI+Y2FsY3VsYXRlU2FmZXR5UmF0aW5nKCk6IGRvdWJsZTwvdGV4dD48ZWxsaXBzZSBjeD0iMTgiIGN5PSI3NDMuNzEwOSIgZmlsbD0iIzg0QkU4NCIgcng9IjMiIHJ5PSIzIiBzdHlsZT0ic3Ryb2tlOiMwMzgwNDg7c3Ryb2tlLXdpZHRoOjEuMDsiLz48dGV4dCBmaWxsPSIjMDAwMDAwIiBmb250LWZhbWlseT0ic2Fucy1zZXJpZiIgZm9udC1zaXplPSIxNCIgbGVuZ3RoQWRqdXN0PSJzcGFjaW5nIiB0ZXh0TGVuZ3RoPSIxNzgiIHg9IjI3IiB5PSI3NDcuOTUzMSI+c2FmZXR5SW5mb3JtYXRpb24oKTogdm9pZDwvdGV4dD48L2c+PCEtLWNsYXNzIE1vdG9yY3ljbGUtLT48ZyBpZD0iZWxlbV9Nb3RvcmN5Y2xlIj48cmVjdCBjb2RlTGluZT0iMjMiIGZpbGw9IiNGMUYxRjEiIGhlaWdodD0iMzMyLjcwMzEiIGlkPSJNb3RvcmN5Y2xlIiByeD0iMi41IiByeT0iMi41IiBzdHlsZT0ic3Ryb2tlOiMxODE4MTg7c3Ryb2tlLXdpZHRoOjAuNTsiIHdpZHRoPSIyOTkiIHg9IjQxOC41IiB5PSI0MjEiLz48ZWxsaXBzZSBjeD0iNTI4Ljc1IiBjeT0iNDM3IiBmaWxsPSIjQUREMUIyIiByeD0iMTEiIHJ5PSIxMSIgc3R5bGU9InN0cm9rZTojMTgxODE4O3N0cm9rZS13aWR0aDoxLjA7Ii8+PHBhdGggZD0iTTUyNi4zNzUsNDQxLjI1IEw1MjYuMzc1LDQ0MyBMNTMxLjMxMjUsNDQzIEw1MzEuMzEyNSw0NDEuMjUgTDUyNi4zNzUsNDQxLjI1IFogTTUyNy4wNjI1LDQ0MS45Mzc1IFE1MjcuMDYyNSw0NDEuOTM3NSA1MjcuMDYyNSw0MzIuNzUgTDUyNS4zMTI1LDQzMi43NSBRNTI1LjMxMjUsNDMyLjc1IDUyNS4zMTI1LDQ0MS45Mzc1IEw1MjcuMDYyNSw0NDEuOTM3NSBaIE01MzAuNjI1LDQ0MS45Mzc1IEw1MzIuMzc1LDQ0MS45Mzc1IFE1MzIuMzc1LDQ0MS45Mzc1IDUzMi4zNzUsNDM5LjEyNSBMNTMwLjYyNSw0MzkuMTI1IFE1MzAuNjI1LDQzOS4xMjUgNTMwLjYyNSw0NDEuOTM3NSBaIE01MzAuNjI1LDQzMi43NSBRNTMwLjYyNSw0MzIuNzUgNTMwLjYyNSw0MzUuNTYyNSBMNTMyLjM3NSw0MzUuNTYyNSBRNTMyLjM3NSw0MzUuNTYyNSA1MzIuMzc1LDQzMi43NSBMNTMwLjYyNSw0MzIuNzUgWiBNNTI2LjM3NSw0MzMuNDM3NSBMNTMxLjMxMjUsNDMzLjQzNzUgTDUzMS4zMTI1LDQzMS42ODc1IEw1MjYuMzc1LDQzMS42ODc1IEw1MjYuMzc1LDQzMy40Mzc1IFogIiBmaWxsPSIjMDAwMDAwIi8+PHRleHQgZmlsbD0iIzAwMDAwMCIgZm9udC1mYW1pbHk9InNhbnMtc2VyaWYiIGZvbnQtc2l6ZT0iMTQiIGxlbmd0aEFkanVzdD0ic3BhY2luZyIgdGV4dExlbmd0aD0iNzAiIHg9IjU0OS4yNSIgeT0iNDQyLjc0MjIiPk1vdG9yY3ljbGU8L3RleHQ+PGxpbmUgc3R5bGU9InN0cm9rZTojMTgxODE4O3N0cm9rZS13aWR0aDowLjU7IiB4MT0iNDE5LjUiIHgyPSI3MTYuNSIgeTE9IjQ1MyIgeTI9IjQ1MyIvPjxyZWN0IGZpbGw9Im5vbmUiIGhlaWdodD0iNiIgc3R5bGU9InN0cm9rZTojQzgyOTMwO3N0cm9rZS13aWR0aDoxLjA7IiB3aWR0aD0iNiIgeD0iNDI2LjUiIHk9IjQ2Mi45OTIyIi8+PHRleHQgZmlsbD0iIzAwMDAwMCIgZm9udC1mYW1pbHk9InNhbnMtc2VyaWYiIGZvbnQtc2l6ZT0iMTQiIGxlbmd0aEFkanVzdD0ic3BhY2luZyIgdGV4dExlbmd0aD0iMTgyIiB4PSI0MzguNSIgeT0iNDcwLjIzNDQiPmhhc0FudGlMb2NrQnJha2VzOiBib29sZWFuPC90ZXh0PjxyZWN0IGZpbGw9Im5vbmUiIGhlaWdodD0iNiIgc3R5bGU9InN0cm9rZTojQzgyOTMwO3N0cm9rZS13aWR0aDoxLjA7IiB3aWR0aD0iNiIgeD0iNDI2LjUiIHk9IjQ3Ny45NzY2Ii8+PHRleHQgZmlsbD0iIzAwMDAwMCIgZm9udC1mYW1pbHk9InNhbnMtc2VyaWYiIGZvbnQtc2l6ZT0iMTQiIGxlbmd0aEFkanVzdD0ic3BhY2luZyIgdGV4dExlbmd0aD0iMTc2IiB4PSI0MzguNSIgeT0iNDg1LjIxODgiPmhhc0hlbG1ldEFpcmJhZ3M6IGJvb2xlYW48L3RleHQ+PHJlY3QgZmlsbD0ibm9uZSIgaGVpZ2h0PSI2IiBzdHlsZT0ic3Ryb2tlOiNDODI5MzA7c3Ryb2tlLXdpZHRoOjEuMDsiIHdpZHRoPSI2IiB4PSI0MjYuNSIgeT0iNDkyLjk2MDkiLz48dGV4dCBmaWxsPSIjMDAwMDAwIiBmb250LWZhbWlseT0ic2Fucy1zZXJpZiIgZm9udC1zaXplPSIxNCIgbGVuZ3RoQWRqdXN0PSJzcGFjaW5nIiB0ZXh0TGVuZ3RoPSIxODkiIHg9IjQzOC41IiB5PSI1MDAuMjAzMSI+aGFzVHJhY3Rpb25Db250cm9sOiBib29sZWFuPC90ZXh0PjxyZWN0IGZpbGw9Im5vbmUiIGhlaWdodD0iNiIgc3R5bGU9InN0cm9rZTojQzgyOTMwO3N0cm9rZS13aWR0aDoxLjA7IiB3aWR0aD0iNiIgeD0iNDI2LjUiIHk9IjUwNy45NDUzIi8+PHRleHQgZmlsbD0iIzAwMDAwMCIgZm9udC1mYW1pbHk9InNhbnMtc2VyaWYiIGZvbnQtc2l6ZT0iMTQiIGxlbmd0aEFkanVzdD0ic3BhY2luZyIgdGV4dExlbmd0aD0iMTk2IiB4PSI0MzguNSIgeT0iNTE1LjE4NzUiPmhhc1N0YWJpbGl0eUNvbnRyb2w6IGJvb2xlYW48L3RleHQ+PHJlY3QgZmlsbD0ibm9uZSIgaGVpZ2h0PSI2IiBzdHlsZT0ic3Ryb2tlOiNDODI5MzA7c3Ryb2tlLXdpZHRoOjEuMDsiIHdpZHRoPSI2IiB4PSI0MjYuNSIgeT0iNTIyLjkyOTciLz48dGV4dCBmaWxsPSIjMDAwMDAwIiBmb250LWZhbWlseT0ic2Fucy1zZXJpZiIgZm9udC1zaXplPSIxNCIgbGVuZ3RoQWRqdXN0PSJzcGFjaW5nIiB0ZXh0TGVuZ3RoPSIxODQiIHg9IjQzOC41IiB5PSI1MzAuMTcxOSI+aGFzUmVhcnZpZXdDYW1lcmE6IGJvb2xlYW48L3RleHQ+PHJlY3QgZmlsbD0ibm9uZSIgaGVpZ2h0PSI2IiBzdHlsZT0ic3Ryb2tlOiNDODI5MzA7c3Ryb2tlLXdpZHRoOjEuMDsiIHdpZHRoPSI2IiB4PSI0MjYuNSIgeT0iNTM3LjkxNDEiLz48dGV4dCBmaWxsPSIjMDAwMDAwIiBmb250LWZhbWlseT0ic2Fucy1zZXJpZiIgZm9udC1zaXplPSIxNCIgbGVuZ3RoQWRqdXN0PSJzcGFjaW5nIiB0ZXh0TGVuZ3RoPSIyMzEiIHg9IjQzOC41IiB5PSI1NDUuMTU2MyI+aGVpZ2h0R3JlYXRlclRoYW5BdmVyYWdlOiBib29sZWFuPC90ZXh0PjxyZWN0IGZpbGw9Im5vbmUiIGhlaWdodD0iNiIgc3R5bGU9InN0cm9rZTojQzgyOTMwO3N0cm9rZS13aWR0aDoxLjA7IiB3aWR0aD0iNiIgeD0iNDI2LjUiIHk9IjU1Mi44OTg0Ii8+PHRleHQgZmlsbD0iIzAwMDAwMCIgZm9udC1mYW1pbHk9InNhbnMtc2VyaWYiIGZvbnQtc2l6ZT0iMTQiIGxlbmd0aEFkanVzdD0ic3BhY2luZyIgdGV4dExlbmd0aD0iMjMyIiB4PSI0MzguNSIgeT0iNTYwLjE0MDYiPndlaWdodEdyZWF0ZXJUaGFuQXZlcmFnZTogYm9vbGVhbjwvdGV4dD48cmVjdCBmaWxsPSJub25lIiBoZWlnaHQ9IjYiIHN0eWxlPSJzdHJva2U6I0M4MjkzMDtzdHJva2Utd2lkdGg6MS4wOyIgd2lkdGg9IjYiIHg9IjQyNi41IiB5PSI1NjcuODgyOCIvPjx0ZXh0IGZpbGw9IiMwMDAwMDAiIGZvbnQtZmFtaWx5PSJzYW5zLXNlcmlmIiBmb250LXNpemU9IjE0IiBsZW5ndGhBZGp1c3Q9InNwYWNpbmciIHRleHRMZW5ndGg9IjIzMSIgeD0iNDM4LjUiIHk9IjU3NS4xMjUiPkFWRVJBR0VfTU9UT1JDWUNMRV9XRUlHSFQ6IGRvdWJsZTwvdGV4dD48cmVjdCBmaWxsPSJub25lIiBoZWlnaHQ9IjYiIHN0eWxlPSJzdHJva2U6I0M4MjkzMDtzdHJva2Utd2lkdGg6MS4wOyIgd2lkdGg9IjYiIHg9IjQyNi41IiB5PSI1ODIuODY3MiIvPjx0ZXh0IGZpbGw9IiMwMDAwMDAiIGZvbnQtZmFtaWx5PSJzYW5zLXNlcmlmIiBmb250LXNpemU9IjE0IiBsZW5ndGhBZGp1c3Q9InNwYWNpbmciIHRleHRMZW5ndGg9IjIzMSIgeD0iNDM4LjUiIHk9IjU5MC4xMDk0Ij5BVkVSQUdFX01PVE9SQ1lDTEVfSEVJR0hUOiBkb3VibGU8L3RleHQ+PHJlY3QgZmlsbD0ibm9uZSIgaGVpZ2h0PSI2IiBzdHlsZT0ic3Ryb2tlOiNDODI5MzA7c3Ryb2tlLXdpZHRoOjEuMDsiIHdpZHRoPSI2IiB4PSI0MjYuNSIgeT0iNTk3Ljg1MTYiLz48dGV4dCBmaWxsPSIjMDAwMDAwIiBmb250LWZhbWlseT0ic2Fucy1zZXJpZiIgZm9udC1zaXplPSIxNCIgbGVuZ3RoQWRqdXN0PSJzcGFjaW5nIiB0ZXh0TGVuZ3RoPSIyNTIiIHg9IjQzOC41IiB5PSI2MDUuMDkzOCI+SEVMTUVUX0FJUkJBR1NfU0FGRVRZX1JBVElORzogZG91YmxlPC90ZXh0PjxyZWN0IGZpbGw9Im5vbmUiIGhlaWdodD0iNiIgc3R5bGU9InN0cm9rZTojQzgyOTMwO3N0cm9rZS13aWR0aDoxLjA7IiB3aWR0aD0iNiIgeD0iNDI2LjUiIHk9IjYxMi44MzU5Ii8+PHRleHQgZmlsbD0iIzAwMDAwMCIgZm9udC1mYW1pbHk9InNhbnMtc2VyaWYiIGZvbnQtc2l6ZT0iMTQiIGxlbmd0aEFkanVzdD0ic3BhY2luZyIgdGV4dExlbmd0aD0iMjczIiB4PSI0MzguNSIgeT0iNjIwLjA3ODEiPlNUQUJJTElUWV9DT05UUk9MX1NBRkVUWV9SQVRJTkc6IGRvdWJsZTwvdGV4dD48cmVjdCBmaWxsPSJub25lIiBoZWlnaHQ9IjYiIHN0eWxlPSJzdHJva2U6I0M4MjkzMDtzdHJva2Utd2lkdGg6MS4wOyIgd2lkdGg9IjYiIHg9IjQyNi41IiB5PSI2MjcuODIwMyIvPjx0ZXh0IGZpbGw9IiMwMDAwMDAiIGZvbnQtZmFtaWx5PSJzYW5zLXNlcmlmIiBmb250LXNpemU9IjE0IiBsZW5ndGhBZGp1c3Q9InNwYWNpbmciIHRleHRMZW5ndGg9IjI2NiIgeD0iNDM4LjUiIHk9IjYzNS4wNjI1Ij5UUkFDVElPTl9DT05UUk9MX1NBRkVUWV9SQVRJTkc6IGRvdWJsZTwvdGV4dD48cmVjdCBmaWxsPSJub25lIiBoZWlnaHQ9IjYiIHN0eWxlPSJzdHJva2U6I0M4MjkzMDtzdHJva2Utd2lkdGg6MS4wOyIgd2lkdGg9IjYiIHg9IjQyNi41IiB5PSI2NDIuODA0NyIvPjx0ZXh0IGZpbGw9IiMwMDAwMDAiIGZvbnQtZmFtaWx5PSJzYW5zLXNlcmlmIiBmb250LXNpemU9IjE0IiBsZW5ndGhBZGp1c3Q9InNwYWNpbmciIHRleHRMZW5ndGg9IjI2NiIgeD0iNDM4LjUiIHk9IjY1MC4wNDY5Ij5BTlRJX0xPQ0tfQlJBS0VTX1NBRkVUWV9SQVRJTkc6IGRvdWJsZTwvdGV4dD48cmVjdCBmaWxsPSJub25lIiBoZWlnaHQ9IjYiIHN0eWxlPSJzdHJva2U6I0M4MjkzMDtzdHJva2Utd2lkdGg6MS4wOyIgd2lkdGg9IjYiIHg9IjQyNi41IiB5PSI2NTcuNzg5MSIvPjx0ZXh0IGZpbGw9IiMwMDAwMDAiIGZvbnQtZmFtaWx5PSJzYW5zLXNlcmlmIiBmb250LXNpemU9IjE0IiBsZW5ndGhBZGp1c3Q9InNwYWNpbmciIHRleHRMZW5ndGg9IjI1OSIgeD0iNDM4LjUiIHk9IjY2NS4wMzEzIj5SRUFSVklFV19DQU1FUkFfU0FGRVRZX1JBVElORzogZG91YmxlPC90ZXh0PjxyZWN0IGZpbGw9Im5vbmUiIGhlaWdodD0iNiIgc3R5bGU9InN0cm9rZTojQzgyOTMwO3N0cm9rZS13aWR0aDoxLjA7IiB3aWR0aD0iNiIgeD0iNDI2LjUiIHk9IjY3Mi43NzM0Ii8+PHRleHQgZmlsbD0iIzAwMDAwMCIgZm9udC1mYW1pbHk9InNhbnMtc2VyaWYiIGZvbnQtc2l6ZT0iMTQiIGxlbmd0aEFkanVzdD0ic3BhY2luZyIgdGV4dExlbmd0aD0iMjczIiB4PSI0MzguNSIgeT0iNjgwLjAxNTYiPk1PVE9SQ1lDTEVfV0VJR0hUX1NBRkVUWV9SQVRJTkc6IGRvdWJsZTwvdGV4dD48cmVjdCBmaWxsPSJub25lIiBoZWlnaHQ9IjYiIHN0eWxlPSJzdHJva2U6I0M4MjkzMDtzdHJva2Utd2lkdGg6MS4wOyIgd2lkdGg9IjYiIHg9IjQyNi41IiB5PSI2ODcuNzU3OCIvPjx0ZXh0IGZpbGw9IiMwMDAwMDAiIGZvbnQtZmFtaWx5PSJzYW5zLXNlcmlmIiBmb250LXNpemU9IjE0IiBsZW5ndGhBZGp1c3Q9InNwYWNpbmciIHRleHRMZW5ndGg9IjI3MyIgeD0iNDM4LjUiIHk9IjY5NSI+TU9UT1JDWUNMRV9IRUlHSFRfU0FGRVRZX1JBVElORzogZG91YmxlPC90ZXh0PjxsaW5lIHN0eWxlPSJzdHJva2U6IzE4MTgxODtzdHJva2Utd2lkdGg6MC41OyIgeDE9IjQxOS41IiB4Mj0iNzE2LjUiIHkxPSI3MDAuNzUiIHkyPSI3MDAuNzUiLz48ZWxsaXBzZSBjeD0iNDI5LjUiIGN5PSI3MTMuNzQyMiIgZmlsbD0iIzg0QkU4NCIgcng9IjMiIHJ5PSIzIiBzdHlsZT0ic3Ryb2tlOiMwMzgwNDg7c3Ryb2tlLXdpZHRoOjEuMDsiLz48dGV4dCBmaWxsPSIjMDAwMDAwIiBmb250LWZhbWlseT0ic2Fucy1zZXJpZiIgZm9udC1zaXplPSIxNCIgbGVuZ3RoQWRqdXN0PSJzcGFjaW5nIiB0ZXh0TGVuZ3RoPSI4NiIgeD0iNDM4LjUiIHk9IjcxNy45ODQ0Ij5Nb3RvcmN5Y2xlKCk8L3RleHQ+PGVsbGlwc2UgY3g9IjQyOS41IiBjeT0iNzI4LjcyNjYiIGZpbGw9IiM4NEJFODQiIHJ4PSIzIiByeT0iMyIgc3R5bGU9InN0cm9rZTojMDM4MDQ4O3N0cm9rZS13aWR0aDoxLjA7Ii8+PHRleHQgZmlsbD0iIzAwMDAwMCIgZm9udC1mYW1pbHk9InNhbnMtc2VyaWYiIGZvbnQtc2l6ZT0iMTQiIGxlbmd0aEFkanVzdD0ic3BhY2luZyIgdGV4dExlbmd0aD0iMjE5IiB4PSI0MzguNSIgeT0iNzMyLjk2ODgiPmNhbGN1bGF0ZVNhZmV0eVJhdGluZygpOiBkb3VibGU8L3RleHQ+PGVsbGlwc2UgY3g9IjQyOS41IiBjeT0iNzQzLjcxMDkiIGZpbGw9IiM4NEJFODQiIHJ4PSIzIiByeT0iMyIgc3R5bGU9InN0cm9rZTojMDM4MDQ4O3N0cm9rZS13aWR0aDoxLjA7Ii8+PHRleHQgZmlsbD0iIzAwMDAwMCIgZm9udC1mYW1pbHk9InNhbnMtc2VyaWYiIGZvbnQtc2l6ZT0iMTQiIGxlbmd0aEFkanVzdD0ic3BhY2luZyIgdGV4dExlbmd0aD0iMTc4IiB4PSI0MzguNSIgeT0iNzQ3Ljk1MzEiPnNhZmV0eUluZm9ybWF0aW9uKCk6IHZvaWQ8L3RleHQ+PC9nPjwhLS1jbGFzcyBCaWN5Y2xlLS0+PGcgaWQ9ImVsZW1fQmljeWNsZSI+PHJlY3QgY29kZUxpbmU9IjQ1IiBmaWxsPSIjRjFGMUYxIiBoZWlnaHQ9IjIxMi44MjgxIiBpZD0iQmljeWNsZSIgcng9IjIuNSIgcnk9IjIuNSIgc3R5bGU9InN0cm9rZTojMTgxODE4O3N0cm9rZS13aWR0aDowLjU7IiB3aWR0aD0iMjUwIiB4PSI3NTMiIHk9IjQ4MSIvPjxlbGxpcHNlIGN4PSI4NDkuMjUiIGN5PSI0OTciIGZpbGw9IiNBREQxQjIiIHJ4PSIxMSIgcnk9IjExIiBzdHlsZT0ic3Ryb2tlOiMxODE4MTg7c3Ryb2tlLXdpZHRoOjEuMDsiLz48cGF0aCBkPSJNODQ2Ljg3NSw1MDEuMjUgTDg0Ni44NzUsNTAzIEw4NTEuODEyNSw1MDMgTDg1MS44MTI1LDUwMS4yNSBMODQ2Ljg3NSw1MDEuMjUgWiBNODQ3LjU2MjUsNTAxLjkzNzUgUTg0Ny41NjI1LDUwMS45Mzc1IDg0Ny41NjI1LDQ5Mi43NSBMODQ1LjgxMjUsNDkyLjc1IFE4NDUuODEyNSw0OTIuNzUgODQ1LjgxMjUsNTAxLjkzNzUgTDg0Ny41NjI1LDUwMS45Mzc1IFogTTg1MS4xMjUsNTAxLjkzNzUgTDg1Mi44NzUsNTAxLjkzNzUgUTg1Mi44NzUsNTAxLjkzNzUgODUyLjg3NSw0OTkuMTI1IEw4NTEuMTI1LDQ5OS4xMjUgUTg1MS4xMjUsNDk5LjEyNSA4NTEuMTI1LDUwMS45Mzc1IFogTTg1MS4xMjUsNDkyLjc1IFE4NTEuMTI1LDQ5Mi43NSA4NTEuMTI1LDQ5NS41NjI1IEw4NTIuODc1LDQ5NS41NjI1IFE4NTIuODc1LDQ5NS41NjI1IDg1Mi44NzUsNDkyLjc1IEw4NTEuMTI1LDQ5Mi43NSBaIE04NDYuODc1LDQ5My40Mzc1IEw4NTEuODEyNSw0OTMuNDM3NSBMODUxLjgxMjUsNDkxLjY4NzUgTDg0Ni44NzUsNDkxLjY4NzUgTDg0Ni44NzUsNDkzLjQzNzUgWiAiIGZpbGw9IiMwMDAwMDAiLz48dGV4dCBmaWxsPSIjMDAwMDAwIiBmb250LWZhbWlseT0ic2Fucy1zZXJpZiIgZm9udC1zaXplPSIxNCIgbGVuZ3RoQWRqdXN0PSJzcGFjaW5nIiB0ZXh0TGVuZ3RoPSI0OSIgeD0iODY5Ljc1IiB5PSI1MDIuNzQyMiI+QmljeWNsZTwvdGV4dD48bGluZSBzdHlsZT0ic3Ryb2tlOiMxODE4MTg7c3Ryb2tlLXdpZHRoOjAuNTsiIHgxPSI3NTQiIHgyPSIxMDAyIiB5MT0iNTEzIiB5Mj0iNTEzIi8+PHJlY3QgZmlsbD0ibm9uZSIgaGVpZ2h0PSI2IiBzdHlsZT0ic3Ryb2tlOiNDODI5MzA7c3Ryb2tlLXdpZHRoOjEuMDsiIHdpZHRoPSI2IiB4PSI3NjEiIHk9IjUyMi45OTIyIi8+PHRleHQgZmlsbD0iIzAwMDAwMCIgZm9udC1mYW1pbHk9InNhbnMtc2VyaWYiIGZvbnQtc2l6ZT0iMTQiIGxlbmd0aEFkanVzdD0ic3BhY2luZyIgdGV4dExlbmd0aD0iMTU0IiB4PSI3NzMiIHk9IjUzMC4yMzQ0Ij5oYXNSZWZsZWN0b3JzOiBib29sZWFuPC90ZXh0PjxyZWN0IGZpbGw9Im5vbmUiIGhlaWdodD0iNiIgc3R5bGU9InN0cm9rZTojQzgyOTMwO3N0cm9rZS13aWR0aDoxLjA7IiB3aWR0aD0iNiIgeD0iNzYxIiB5PSI1MzcuOTc2NiIvPjx0ZXh0IGZpbGw9IiMwMDAwMDAiIGZvbnQtZmFtaWx5PSJzYW5zLXNlcmlmIiBmb250LXNpemU9IjE0IiBsZW5ndGhBZGp1c3Q9InNwYWNpbmciIHRleHRMZW5ndGg9IjExOSIgeD0iNzczIiB5PSI1NDUuMjE4OCI+aGFzQmVsbHM6IGJvb2xlYW48L3RleHQ+PHJlY3QgZmlsbD0ibm9uZSIgaGVpZ2h0PSI2IiBzdHlsZT0ic3Ryb2tlOiNDODI5MzA7c3Ryb2tlLXdpZHRoOjEuMDsiIHdpZHRoPSI2IiB4PSI3NjEiIHk9IjU1Mi45NjA5Ii8+PHRleHQgZmlsbD0iIzAwMDAwMCIgZm9udC1mYW1pbHk9InNhbnMtc2VyaWYiIGZvbnQtc2l6ZT0iMTQiIGxlbmd0aEFkanVzdD0ic3BhY2luZyIgdGV4dExlbmd0aD0iMTI2IiB4PSI3NzMiIHk9IjU2MC4yMDMxIj5oYXNMaWdodHM6IGJvb2xlYW48L3RleHQ+PHJlY3QgZmlsbD0ibm9uZSIgaGVpZ2h0PSI2IiBzdHlsZT0ic3Ryb2tlOiNDODI5MzA7c3Ryb2tlLXdpZHRoOjEuMDsiIHdpZHRoPSI2IiB4PSI3NjEiIHk9IjU2Ny45NDUzIi8+PHRleHQgZmlsbD0iIzAwMDAwMCIgZm9udC1mYW1pbHk9InNhbnMtc2VyaWYiIGZvbnQtc2l6ZT0iMTQiIGxlbmd0aEFkanVzdD0ic3BhY2luZyIgdGV4dExlbmd0aD0iMTI3IiB4PSI3NzMiIHk9IjU3NS4xODc1Ij5oYXNIZWxtZXQ6IGJvb2xlYW48L3RleHQ+PHJlY3QgZmlsbD0ibm9uZSIgaGVpZ2h0PSI2IiBzdHlsZT0ic3Ryb2tlOiNDODI5MzA7c3Ryb2tlLXdpZHRoOjEuMDsiIHdpZHRoPSI2IiB4PSI3NjEiIHk9IjU4Mi45Mjk3Ii8+PHRleHQgZmlsbD0iIzAwMDAwMCIgZm9udC1mYW1pbHk9InNhbnMtc2VyaWYiIGZvbnQtc2l6ZT0iMTQiIGxlbmd0aEFkanVzdD0ic3BhY2luZyIgdGV4dExlbmd0aD0iMjI0IiB4PSI3NzMiIHk9IjU5MC4xNzE5Ij5SRUZMRUNUT1JTX1NBRkVUWV9SQVRJTkc6IGRvdWJsZTwvdGV4dD48cmVjdCBmaWxsPSJub25lIiBoZWlnaHQ9IjYiIHN0eWxlPSJzdHJva2U6I0M4MjkzMDtzdHJva2Utd2lkdGg6MS4wOyIgd2lkdGg9IjYiIHg9Ijc2MSIgeT0iNTk3LjkxNDEiLz48dGV4dCBmaWxsPSIjMDAwMDAwIiBmb250LWZhbWlseT0ic2Fucy1zZXJpZiIgZm9udC1zaXplPSIxNCIgbGVuZ3RoQWRqdXN0PSJzcGFjaW5nIiB0ZXh0TGVuZ3RoPSIxODkiIHg9Ijc3MyIgeT0iNjA1LjE1NjMiPkJFTExTX1NBRkVUWV9SQVRJTkc6IGRvdWJsZTwvdGV4dD48cmVjdCBmaWxsPSJub25lIiBoZWlnaHQ9IjYiIHN0eWxlPSJzdHJva2U6I0M4MjkzMDtzdHJva2Utd2lkdGg6MS4wOyIgd2lkdGg9IjYiIHg9Ijc2MSIgeT0iNjEyLjg5ODQiLz48dGV4dCBmaWxsPSIjMDAwMDAwIiBmb250LWZhbWlseT0ic2Fucy1zZXJpZiIgZm9udC1zaXplPSIxNCIgbGVuZ3RoQWRqdXN0PSJzcGFjaW5nIiB0ZXh0TGVuZ3RoPSIxOTYiIHg9Ijc3MyIgeT0iNjIwLjE0MDYiPkxJR0hUU19TQUZFVFlfUkFUSU5HOiBkb3VibGU8L3RleHQ+PHJlY3QgZmlsbD0ibm9uZSIgaGVpZ2h0PSI2IiBzdHlsZT0ic3Ryb2tlOiNDODI5MzA7c3Ryb2tlLXdpZHRoOjEuMDsiIHdpZHRoPSI2IiB4PSI3NjEiIHk9IjYyNy44ODI4Ii8+PHRleHQgZmlsbD0iIzAwMDAwMCIgZm9udC1mYW1pbHk9InNhbnMtc2VyaWYiIGZvbnQtc2l6ZT0iMTQiIGxlbmd0aEFkanVzdD0ic3BhY2luZyIgdGV4dExlbmd0aD0iMTk2IiB4PSI3NzMiIHk9IjYzNS4xMjUiPkhFTE1FVF9TQUZFVFlfUkFUSU5HOiBkb3VibGU8L3RleHQ+PGxpbmUgc3R5bGU9InN0cm9rZTojMTgxODE4O3N0cm9rZS13aWR0aDowLjU7IiB4MT0iNzU0IiB4Mj0iMTAwMiIgeTE9IjY0MC44NzUiIHkyPSI2NDAuODc1Ii8+PGVsbGlwc2UgY3g9Ijc2NCIgY3k9IjY1My44NjcyIiBmaWxsPSIjODRCRTg0IiByeD0iMyIgcnk9IjMiIHN0eWxlPSJzdHJva2U6IzAzODA0ODtzdHJva2Utd2lkdGg6MS4wOyIvPjx0ZXh0IGZpbGw9IiMwMDAwMDAiIGZvbnQtZmFtaWx5PSJzYW5zLXNlcmlmIiBmb250LXNpemU9IjE0IiBsZW5ndGhBZGp1c3Q9InNwYWNpbmciIHRleHRMZW5ndGg9IjY1IiB4PSI3NzMiIHk9IjY1OC4xMDk0Ij5CaWN5Y2xlKCk8L3RleHQ+PGVsbGlwc2UgY3g9Ijc2NCIgY3k9IjY2OC44NTE2IiBmaWxsPSIjODRCRTg0IiByeD0iMyIgcnk9IjMiIHN0eWxlPSJzdHJva2U6IzAzODA0ODtzdHJva2Utd2lkdGg6MS4wOyIvPjx0ZXh0IGZpbGw9IiMwMDAwMDAiIGZvbnQtZmFtaWx5PSJzYW5zLXNlcmlmIiBmb250LXNpemU9IjE0IiBsZW5ndGhBZGp1c3Q9InNwYWNpbmciIHRleHRMZW5ndGg9IjIxOSIgeD0iNzczIiB5PSI2NzMuMDkzOCI+Y2FsY3VsYXRlU2FmZXR5UmF0aW5nKCk6IGRvdWJsZTwvdGV4dD48ZWxsaXBzZSBjeD0iNzY0IiBjeT0iNjgzLjgzNTkiIGZpbGw9IiM4NEJFODQiIHJ4PSIzIiByeT0iMyIgc3R5bGU9InN0cm9rZTojMDM4MDQ4O3N0cm9rZS13aWR0aDoxLjA7Ii8+PHRleHQgZmlsbD0iIzAwMDAwMCIgZm9udC1mYW1pbHk9InNhbnMtc2VyaWYiIGZvbnQtc2l6ZT0iMTQiIGxlbmd0aEFkanVzdD0ic3BhY2luZyIgdGV4dExlbmd0aD0iMTc4IiB4PSI3NzMiIHk9IjY4OC4wNzgxIj5zYWZldHlJbmZvcm1hdGlvbigpOiB2b2lkPC90ZXh0PjwvZz48IS0tY2xhc3MgVmVoaWNsZUZhY3RvcnktLT48ZyBpZD0iZWxlbV9WZWhpY2xlRmFjdG9yeSI+PHJlY3QgY29kZUxpbmU9IjU5IiBmaWxsPSIjRjFGMUYxIiBoZWlnaHQ9IjYyLjk4NDQiIGlkPSJWZWhpY2xlRmFjdG9yeSIgcng9IjIuNSIgcnk9IjIuNSIgc3R5bGU9InN0cm9rZTojMTgxODE4O3N0cm9rZS13aWR0aDowLjU7IiB3aWR0aD0iMTk2IiB4PSI0NzAiIHk9IjE0NSIvPjxlbGxpcHNlIGN4PSI1MTQuNzUiIGN5PSIxNjEiIGZpbGw9IiNCNEE3RTUiIHJ4PSIxMSIgcnk9IjExIiBzdHlsZT0ic3Ryb2tlOiMxODE4MTg7c3Ryb2tlLXdpZHRoOjEuMDsiLz48cGF0aCBkPSJNNTE3Ljg3NSwxNjcgTDUxNy44NzUsMTY1LjI1IEw1MTUuNzUsMTY1LjI1IFE1MTUuNzUsMTY1LjI1IDUxNS43NSwxNTcuNDM3NSBMNTE3Ljg3NSwxNTcuNDM3NSBMNTE3Ljg3NSwxNTUuNjg3NSBMNTExLjg3NSwxNTUuNjg3NSBMNTExLjg3NSwxNTcuNDM3NSBMNTE0LDE1Ny40Mzc1IFE1MTQsMTU3LjQzNzUgNTE0LDE2NS4yNSBMNTExLjg3NSwxNjUuMjUgTDUxMS44NzUsMTY3IEw1MTcuODc1LDE2NyBaICIgZmlsbD0iIzAwMDAwMCIvPjx0ZXh0IGZpbGw9IiMwMDAwMDAiIGZvbnQtZmFtaWx5PSJzYW5zLXNlcmlmIiBmb250LXNpemU9IjE0IiBmb250LXN0eWxlPSJpdGFsaWMiIGxlbmd0aEFkanVzdD0ic3BhY2luZyIgdGV4dExlbmd0aD0iOTgiIHg9IjUzNS4yNSIgeT0iMTY2Ljc0MjIiPlZlaGljbGVGYWN0b3J5PC90ZXh0PjxsaW5lIHN0eWxlPSJzdHJva2U6IzE4MTgxODtzdHJva2Utd2lkdGg6MC41OyIgeDE9IjQ3MSIgeDI9IjY2NSIgeTE9IjE3NyIgeTI9IjE3NyIvPjxsaW5lIHN0eWxlPSJzdHJva2U6IzE4MTgxODtzdHJva2Utd2lkdGg6MC41OyIgeDE9IjQ3MSIgeDI9IjY2NSIgeTE9IjE4NSIgeTI9IjE4NSIvPjxlbGxpcHNlIGN4PSI0ODEiIGN5PSIxOTcuOTkyMiIgZmlsbD0iIzg0QkU4NCIgcng9IjMiIHJ5PSIzIiBzdHlsZT0ic3Ryb2tlOiMwMzgwNDg7c3Ryb2tlLXdpZHRoOjEuMDsiLz48dGV4dCBmaWxsPSIjMDAwMDAwIiBmb250LWZhbWlseT0ic2Fucy1zZXJpZiIgZm9udC1zaXplPSIxNCIgbGVuZ3RoQWRqdXN0PSJzcGFjaW5nIiB0ZXh0TGVuZ3RoPSIxNzAiIHg9IjQ5MCIgeT0iMjAyLjIzNDQiPmNyZWF0ZVZlaGljbGUoKTogVmVoaWNsZTwvdGV4dD48L2c+PCEtLWNsYXNzIFVzZXJJbnRlcmZhY2UtLT48ZyBpZD0iZWxlbV9Vc2VySW50ZXJmYWNlIj48cmVjdCBjb2RlTGluZT0iNjMiIGZpbGw9IiNGMUYxRjEiIGhlaWdodD0iNjIuOTg0NCIgaWQ9IlVzZXJJbnRlcmZhY2UiIHJ4PSIyLjUiIHJ5PSIyLjUiIHN0eWxlPSJzdHJva2U6IzE4MTgxODtzdHJva2Utd2lkdGg6MC41OyIgd2lkdGg9IjIxMSIgeD0iNDYyLjUiIHk9IjciLz48ZWxsaXBzZSBjeD0iNTE4LjI1IiBjeT0iMjMiIGZpbGw9IiNBREQxQjIiIHJ4PSIxMSIgcnk9IjExIiBzdHlsZT0ic3Ryb2tlOiMxODE4MTg7c3Ryb2tlLXdpZHRoOjEuMDsiLz48cGF0aCBkPSJNNTE1Ljg3NSwyNy4yNSBMNTE1Ljg3NSwyOSBMNTIwLjgxMjUsMjkgTDUyMC44MTI1LDI3LjI1IEw1MTUuODc1LDI3LjI1IFogTTUxNi41NjI1LDI3LjkzNzUgUTUxNi41NjI1LDI3LjkzNzUgNTE2LjU2MjUsMTguNzUgTDUxNC44MTI1LDE4Ljc1IFE1MTQuODEyNSwxOC43NSA1MTQuODEyNSwyNy45Mzc1IEw1MTYuNTYyNSwyNy45Mzc1IFogTTUyMC4xMjUsMjcuOTM3NSBMNTIxLjg3NSwyNy45Mzc1IFE1MjEuODc1LDI3LjkzNzUgNTIxLjg3NSwyNS4xMjUgTDUyMC4xMjUsMjUuMTI1IFE1MjAuMTI1LDI1LjEyNSA1MjAuMTI1LDI3LjkzNzUgWiBNNTIwLjEyNSwxOC43NSBRNTIwLjEyNSwxOC43NSA1MjAuMTI1LDIxLjU2MjUgTDUyMS44NzUsMjEuNTYyNSBRNTIxLjg3NSwyMS41NjI1IDUyMS44NzUsMTguNzUgTDUyMC4xMjUsMTguNzUgWiBNNTE1Ljg3NSwxOS40Mzc1IEw1MjAuODEyNSwxOS40Mzc1IEw1MjAuODEyNSwxNy42ODc1IEw1MTUuODc1LDE3LjY4NzUgTDUxNS44NzUsMTkuNDM3NSBaICIgZmlsbD0iIzAwMDAwMCIvPjx0ZXh0IGZpbGw9IiMwMDAwMDAiIGZvbnQtZmFtaWx5PSJzYW5zLXNlcmlmIiBmb250LXNpemU9IjE0IiBsZW5ndGhBZGp1c3Q9InNwYWNpbmciIHRleHRMZW5ndGg9IjkxIiB4PSI1MzguNzUiIHk9IjI4Ljc0MjIiPlVzZXJJbnRlcmZhY2U8L3RleHQ+PGxpbmUgc3R5bGU9InN0cm9rZTojMTgxODE4O3N0cm9rZS13aWR0aDowLjU7IiB4MT0iNDYzLjUiIHgyPSI2NzIuNSIgeTE9IjM5IiB5Mj0iMzkiLz48bGluZSBzdHlsZT0ic3Ryb2tlOiMxODE4MTg7c3Ryb2tlLXdpZHRoOjAuNTsiIHgxPSI0NjMuNSIgeDI9IjY3Mi41IiB5MT0iNDciIHkyPSI0NyIvPjxlbGxpcHNlIGN4PSI0NzMuNSIgY3k9IjU5Ljk5MjIiIGZpbGw9IiM4NEJFODQiIHJ4PSIzIiByeT0iMyIgc3R5bGU9InN0cm9rZTojMDM4MDQ4O3N0cm9rZS13aWR0aDoxLjA7Ii8+PHRleHQgZmlsbD0iIzAwMDAwMCIgZm9udC1mYW1pbHk9InNhbnMtc2VyaWYiIGZvbnQtc2l6ZT0iMTQiIGxlbmd0aEFkanVzdD0ic3BhY2luZyIgdGV4dExlbmd0aD0iMTg1IiB4PSI0ODIuNSIgeT0iNjQuMjM0NCI+bWFpbihhcmdzOiBTdHJpbmdbXSk6IHZvaWQ8L3RleHQ+PC9nPjwhLS1jbGFzcyBDYXJGYWN0b3J5LS0+PGcgaWQ9ImVsZW1fQ2FyRmFjdG9yeSI+PHJlY3QgY29kZUxpbmU9IjY3IiBmaWxsPSIjRjFGMUYxIiBoZWlnaHQ9IjYyLjk4NDQiIGlkPSJDYXJGYWN0b3J5IiByeD0iMi41IiByeT0iMi41IiBzdHlsZT0ic3Ryb2tlOiMxODE4MTg7c3Ryb2tlLXdpZHRoOjAuNTsiIHdpZHRoPSIxOTYiIHg9IjIwNCIgeT0iMjgzIi8+PGVsbGlwc2UgY3g9IjI2Mi43NSIgY3k9IjI5OSIgZmlsbD0iI0FERDFCMiIgcng9IjExIiByeT0iMTEiIHN0eWxlPSJzdHJva2U6IzE4MTgxODtzdHJva2Utd2lkdGg6MS4wOyIvPjxwYXRoIGQ9Ik0yNjAuMzc1LDMwMy4yNSBMMjYwLjM3NSwzMDUgTDI2NS4zMTI1LDMwNSBMMjY1LjMxMjUsMzAzLjI1IEwyNjAuMzc1LDMwMy4yNSBaIE0yNjEuMDYyNSwzMDMuOTM3NSBRMjYxLjA2MjUsMzAzLjkzNzUgMjYxLjA2MjUsMjk0Ljc1IEwyNTkuMzEyNSwyOTQuNzUgUTI1OS4zMTI1LDI5NC43NSAyNTkuMzEyNSwzMDMuOTM3NSBMMjYxLjA2MjUsMzAzLjkzNzUgWiBNMjY0LjYyNSwzMDMuOTM3NSBMMjY2LjM3NSwzMDMuOTM3NSBRMjY2LjM3NSwzMDMuOTM3NSAyNjYuMzc1LDMwMS4xMjUgTDI2NC42MjUsMzAxLjEyNSBRMjY0LjYyNSwzMDEuMTI1IDI2NC42MjUsMzAzLjkzNzUgWiBNMjY0LjYyNSwyOTQuNzUgUTI2NC42MjUsMjk0Ljc1IDI2NC42MjUsMjk3LjU2MjUgTDI2Ni4zNzUsMjk3LjU2MjUgUTI2Ni4zNzUsMjk3LjU2MjUgMjY2LjM3NSwyOTQuNzUgTDI2NC42MjUsMjk0Ljc1IFogTTI2MC4zNzUsMjk1LjQzNzUgTDI2NS4zMTI1LDI5NS40Mzc1IEwyNjUuMzEyNSwyOTMuNjg3NSBMMjYwLjM3NSwyOTMuNjg3NSBMMjYwLjM3NSwyOTUuNDM3NSBaICIgZmlsbD0iIzAwMDAwMCIvPjx0ZXh0IGZpbGw9IiMwMDAwMDAiIGZvbnQtZmFtaWx5PSJzYW5zLXNlcmlmIiBmb250LXNpemU9IjE0IiBsZW5ndGhBZGp1c3Q9InNwYWNpbmciIHRleHRMZW5ndGg9IjcwIiB4PSIyODMuMjUiIHk9IjMwNC43NDIyIj5DYXJGYWN0b3J5PC90ZXh0PjxsaW5lIHN0eWxlPSJzdHJva2U6IzE4MTgxODtzdHJva2Utd2lkdGg6MC41OyIgeDE9IjIwNSIgeDI9IjM5OSIgeTE9IjMxNSIgeTI9IjMxNSIvPjxsaW5lIHN0eWxlPSJzdHJva2U6IzE4MTgxODtzdHJva2Utd2lkdGg6MC41OyIgeDE9IjIwNSIgeDI9IjM5OSIgeTE9IjMyMyIgeTI9IjMyMyIvPjxlbGxpcHNlIGN4PSIyMTUiIGN5PSIzMzUuOTkyMiIgZmlsbD0iIzg0QkU4NCIgcng9IjMiIHJ5PSIzIiBzdHlsZT0ic3Ryb2tlOiMwMzgwNDg7c3Ryb2tlLXdpZHRoOjEuMDsiLz48dGV4dCBmaWxsPSIjMDAwMDAwIiBmb250LWZhbWlseT0ic2Fucy1zZXJpZiIgZm9udC1zaXplPSIxNCIgbGVuZ3RoQWRqdXN0PSJzcGFjaW5nIiB0ZXh0TGVuZ3RoPSIxNzAiIHg9IjIyNCIgeT0iMzQwLjIzNDQiPmNyZWF0ZVZlaGljbGUoKTogVmVoaWNsZTwvdGV4dD48L2c+PCEtLWNsYXNzIE1vdG9yY3ljbGVGYWN0b3J5LS0+PGcgaWQ9ImVsZW1fTW90b3JjeWNsZUZhY3RvcnkiPjxyZWN0IGNvZGVMaW5lPSI3MSIgZmlsbD0iI0YxRjFGMSIgaGVpZ2h0PSI2Mi45ODQ0IiBpZD0iTW90b3JjeWNsZUZhY3RvcnkiIHJ4PSIyLjUiIHJ5PSIyLjUiIHN0eWxlPSJzdHJva2U6IzE4MTgxODtzdHJva2Utd2lkdGg6MC41OyIgd2lkdGg9IjE5NiIgeD0iNDcwIiB5PSIyODMiLz48ZWxsaXBzZSBjeD0iNTA1LjI1IiBjeT0iMjk5IiBmaWxsPSIjQUREMUIyIiByeD0iMTEiIHJ5PSIxMSIgc3R5bGU9InN0cm9rZTojMTgxODE4O3N0cm9rZS13aWR0aDoxLjA7Ii8+PHBhdGggZD0iTTUwMi44NzUsMzAzLjI1IEw1MDIuODc1LDMwNSBMNTA3LjgxMjUsMzA1IEw1MDcuODEyNSwzMDMuMjUgTDUwMi44NzUsMzAzLjI1IFogTTUwMy41NjI1LDMwMy45Mzc1IFE1MDMuNTYyNSwzMDMuOTM3NSA1MDMuNTYyNSwyOTQuNzUgTDUwMS44MTI1LDI5NC43NSBRNTAxLjgxMjUsMjk0Ljc1IDUwMS44MTI1LDMwMy45Mzc1IEw1MDMuNTYyNSwzMDMuOTM3NSBaIE01MDcuMTI1LDMwMy45Mzc1IEw1MDguODc1LDMwMy45Mzc1IFE1MDguODc1LDMwMy45Mzc1IDUwOC44NzUsMzAxLjEyNSBMNTA3LjEyNSwzMDEuMTI1IFE1MDcuMTI1LDMwMS4xMjUgNTA3LjEyNSwzMDMuOTM3NSBaIE01MDcuMTI1LDI5NC43NSBRNTA3LjEyNSwyOTQuNzUgNTA3LjEyNSwyOTcuNTYyNSBMNTA4Ljg3NSwyOTcuNTYyNSBRNTA4Ljg3NSwyOTcuNTYyNSA1MDguODc1LDI5NC43NSBMNTA3LjEyNSwyOTQuNzUgWiBNNTAyLjg3NSwyOTUuNDM3NSBMNTA3LjgxMjUsMjk1LjQzNzUgTDUwNy44MTI1LDI5My42ODc1IEw1MDIuODc1LDI5My42ODc1IEw1MDIuODc1LDI5NS40Mzc1IFogIiBmaWxsPSIjMDAwMDAwIi8+PHRleHQgZmlsbD0iIzAwMDAwMCIgZm9udC1mYW1pbHk9InNhbnMtc2VyaWYiIGZvbnQtc2l6ZT0iMTQiIGxlbmd0aEFkanVzdD0ic3BhY2luZyIgdGV4dExlbmd0aD0iMTE5IiB4PSI1MjMuNzUiIHk9IjMwNC43NDIyIj5Nb3RvcmN5Y2xlRmFjdG9yeTwvdGV4dD48bGluZSBzdHlsZT0ic3Ryb2tlOiMxODE4MTg7c3Ryb2tlLXdpZHRoOjAuNTsiIHgxPSI0NzEiIHgyPSI2NjUiIHkxPSIzMTUiIHkyPSIzMTUiLz48bGluZSBzdHlsZT0ic3Ryb2tlOiMxODE4MTg7c3Ryb2tlLXdpZHRoOjAuNTsiIHgxPSI0NzEiIHgyPSI2NjUiIHkxPSIzMjMiIHkyPSIzMjMiLz48ZWxsaXBzZSBjeD0iNDgxIiBjeT0iMzM1Ljk5MjIiIGZpbGw9IiM4NEJFODQiIHJ4PSIzIiByeT0iMyIgc3R5bGU9InN0cm9rZTojMDM4MDQ4O3N0cm9rZS13aWR0aDoxLjA7Ii8+PHRleHQgZmlsbD0iIzAwMDAwMCIgZm9udC1mYW1pbHk9InNhbnMtc2VyaWYiIGZvbnQtc2l6ZT0iMTQiIGxlbmd0aEFkanVzdD0ic3BhY2luZyIgdGV4dExlbmd0aD0iMTcwIiB4PSI0OTAiIHk9IjM0MC4yMzQ0Ij5jcmVhdGVWZWhpY2xlKCk6IFZlaGljbGU8L3RleHQ+PC9nPjwhLS1jbGFzcyBCaWN5Y2xlRmFjdG9yeS0tPjxnIGlkPSJlbGVtX0JpY3ljbGVGYWN0b3J5Ij48cmVjdCBjb2RlTGluZT0iNzUiIGZpbGw9IiNGMUYxRjEiIGhlaWdodD0iNjIuOTg0NCIgaWQ9IkJpY3ljbGVGYWN0b3J5IiByeD0iMi41IiByeT0iMi41IiBzdHlsZT0ic3Ryb2tlOiMxODE4MTg7c3Ryb2tlLXdpZHRoOjAuNTsiIHdpZHRoPSIxOTYiIHg9Ijc0MCIgeT0iMjgzIi8+PGVsbGlwc2UgY3g9Ijc4NC43NSIgY3k9IjI5OSIgZmlsbD0iI0FERDFCMiIgcng9IjExIiByeT0iMTEiIHN0eWxlPSJzdHJva2U6IzE4MTgxODtzdHJva2Utd2lkdGg6MS4wOyIvPjxwYXRoIGQ9Ik03ODIuMzc1LDMwMy4yNSBMNzgyLjM3NSwzMDUgTDc4Ny4zMTI1LDMwNSBMNzg3LjMxMjUsMzAzLjI1IEw3ODIuMzc1LDMwMy4yNSBaIE03ODMuMDYyNSwzMDMuOTM3NSBRNzgzLjA2MjUsMzAzLjkzNzUgNzgzLjA2MjUsMjk0Ljc1IEw3ODEuMzEyNSwyOTQuNzUgUTc4MS4zMTI1LDI5NC43NSA3ODEuMzEyNSwzMDMuOTM3NSBMNzgzLjA2MjUsMzAzLjkzNzUgWiBNNzg2LjYyNSwzMDMuOTM3NSBMNzg4LjM3NSwzMDMuOTM3NSBRNzg4LjM3NSwzMDMuOTM3NSA3ODguMzc1LDMwMS4xMjUgTDc4Ni42MjUsMzAxLjEyNSBRNzg2LjYyNSwzMDEuMTI1IDc4Ni42MjUsMzAzLjkzNzUgWiBNNzg2LjYyNSwyOTQuNzUgUTc4Ni42MjUsMjk0Ljc1IDc4Ni42MjUsMjk3LjU2MjUgTDc4OC4zNzUsMjk3LjU2MjUgUTc4OC4zNzUsMjk3LjU2MjUgNzg4LjM3NSwyOTQuNzUgTDc4Ni42MjUsMjk0Ljc1IFogTTc4Mi4zNzUsMjk1LjQzNzUgTDc4Ny4zMTI1LDI5NS40Mzc1IEw3ODcuMzEyNSwyOTMuNjg3NSBMNzgyLjM3NSwyOTMuNjg3NSBMNzgyLjM3NSwyOTUuNDM3NSBaICIgZmlsbD0iIzAwMDAwMCIvPjx0ZXh0IGZpbGw9IiMwMDAwMDAiIGZvbnQtZmFtaWx5PSJzYW5zLXNlcmlmIiBmb250LXNpemU9IjE0IiBsZW5ndGhBZGp1c3Q9InNwYWNpbmciIHRleHRMZW5ndGg9Ijk4IiB4PSI4MDUuMjUiIHk9IjMwNC43NDIyIj5CaWN5Y2xlRmFjdG9yeTwvdGV4dD48bGluZSBzdHlsZT0ic3Ryb2tlOiMxODE4MTg7c3Ryb2tlLXdpZHRoOjAuNTsiIHgxPSI3NDEiIHgyPSI5MzUiIHkxPSIzMTUiIHkyPSIzMTUiLz48bGluZSBzdHlsZT0ic3Ryb2tlOiMxODE4MTg7c3Ryb2tlLXdpZHRoOjAuNTsiIHgxPSI3NDEiIHgyPSI5MzUiIHkxPSIzMjMiIHkyPSIzMjMiLz48ZWxsaXBzZSBjeD0iNzUxIiBjeT0iMzM1Ljk5MjIiIGZpbGw9IiM4NEJFODQiIHJ4PSIzIiByeT0iMyIgc3R5bGU9InN0cm9rZTojMDM4MDQ4O3N0cm9rZS13aWR0aDoxLjA7Ii8+PHRleHQgZmlsbD0iIzAwMDAwMCIgZm9udC1mYW1pbHk9InNhbnMtc2VyaWYiIGZvbnQtc2l6ZT0iMTQiIGxlbmd0aEFkanVzdD0ic3BhY2luZyIgdGV4dExlbmd0aD0iMTcwIiB4PSI3NjAiIHk9IjM0MC4yMzQ0Ij5jcmVhdGVWZWhpY2xlKCk6IFZlaGljbGU8L3RleHQ+PC9nPjwhLS1jbGFzcyBWZWhpY2xlLS0+PGcgaWQ9ImVsZW1fVmVoaWNsZSI+PHJlY3QgY29kZUxpbmU9Ijc5IiBmaWxsPSIjRjFGMUYxIiBoZWlnaHQ9IjI1Ny43ODEzIiBpZD0iVmVoaWNsZSIgcng9IjIuNSIgcnk9IjIuNSIgc3R5bGU9InN0cm9rZTojMTgxODE4O3N0cm9rZS13aWR0aDowLjU7IiB3aWR0aD0iNzUyIiB4PSIxOTIiIHk9IjgyOSIvPjxlbGxpcHNlIGN4PSI1MzkuMjUiIGN5PSI4NDUiIGZpbGw9IiNBOURDREYiIHJ4PSIxMSIgcnk9IjExIiBzdHlsZT0ic3Ryb2tlOiMxODE4MTg7c3Ryb2tlLXdpZHRoOjEuMDsiLz48cGF0aCBkPSJNNTM1LjgxMjUsODQyLjYyNSBMNTM1LjgxMjUsODUwLjc1IEw1MzcuNTYyNSw4NTAuNzUgUTUzNy41NjI1LDg1MC43NSA1MzcuNTYyNSw4NDYuNSBMNTQxLjEyNSw4NDYuNSBRNTQxLjEyNSw4NDYuNSA1NDEuMTI1LDg1MC43NSBMNTQyLjg3NSw4NTAuNzUgTDU0Mi44NzUsODQyLjYyNSBMNTQxLjEyNSw4NDIuNjI1IFE1NDEuMTI1LDg0Mi42MjUgNTQxLjEyNSw4NDQuNzUgTDUzNy41NjI1LDg0NC43NSBRNTM3LjU2MjUsODQ0Ljc1IDUzNy41NjI1LDg0Mi42MjUgTDUzNS44MTI1LDg0Mi42MjUgWiBNNTM2Ljg3NSw4NDMuMzEyNSBMNTM4LjYyNSw4NDMuMzEyNSBRNTM4LjYyNSw4NDMuMzEyNSA1MzguNjI1LDg0MC41IEw1MzYuODc1LDg0MC41IFE1MzYuODc1LDg0MC41IDUzNi44NzUsODQzLjMxMjUgWiBNNTQxLjgxMjUsODQzLjMxMjUgUTU0MS44MTI1LDg0My4zMTI1IDU0MS44MTI1LDg0MC41IEw1NDAuMDYyNSw4NDAuNSBRNTQwLjA2MjUsODQwLjUgNTQwLjA2MjUsODQzLjMxMjUgTDU0MS44MTI1LDg0My4zMTI1IFogTTUzNy45Mzc1LDg0MS4xODc1IEw1NDAuNzUsODQxLjE4NzUgTDU0MC43NSw4MzkuNDM3NSBMNTM3LjkzNzUsODM5LjQzNzUgTDUzNy45Mzc1LDg0MS4xODc1IFogIiBmaWxsPSIjMDAwMDAwIi8+PHRleHQgZmlsbD0iIzAwMDAwMCIgZm9udC1mYW1pbHk9InNhbnMtc2VyaWYiIGZvbnQtc2l6ZT0iMTQiIGZvbnQtc3R5bGU9Iml0YWxpYyIgbGVuZ3RoQWRqdXN0PSJzcGFjaW5nIiB0ZXh0TGVuZ3RoPSI0OSIgeD0iNTU5Ljc1IiB5PSI4NTAuNzQyMiI+VmVoaWNsZTwvdGV4dD48bGluZSBzdHlsZT0ic3Ryb2tlOiMxODE4MTg7c3Ryb2tlLXdpZHRoOjAuNTsiIHgxPSIxOTMiIHgyPSI5NDMiIHkxPSI4NjEiIHkyPSI4NjEiLz48cmVjdCBmaWxsPSJub25lIiBoZWlnaHQ9IjYiIHN0eWxlPSJzdHJva2U6I0M4MjkzMDtzdHJva2Utd2lkdGg6MS4wOyIgd2lkdGg9IjYiIHg9IjIwMCIgeT0iODcwLjk5MjIiLz48dGV4dCBmaWxsPSIjMDAwMDAwIiBmb250LWZhbWlseT0ic2Fucy1zZXJpZiIgZm9udC1zaXplPSIxNCIgbGVuZ3RoQWRqdXN0PSJzcGFjaW5nIiB0ZXh0TGVuZ3RoPSI5MSIgeD0iMjEyIiB5PSI4NzguMjM0NCI+Y29sb3I6IFN0cmluZzwvdGV4dD48cmVjdCBmaWxsPSJub25lIiBoZWlnaHQ9IjYiIHN0eWxlPSJzdHJva2U6I0M4MjkzMDtzdHJva2Utd2lkdGg6MS4wOyIgd2lkdGg9IjYiIHg9IjIwMCIgeT0iODg1Ljk3NjYiLz48dGV4dCBmaWxsPSIjMDAwMDAwIiBmb250LWZhbWlseT0ic2Fucy1zZXJpZiIgZm9udC1zaXplPSIxNCIgbGVuZ3RoQWRqdXN0PSJzcGFjaW5nIiB0ZXh0TGVuZ3RoPSI5MiIgeD0iMjEyIiB5PSI4OTMuMjE4OCI+bW9kZWw6IFN0cmluZzwvdGV4dD48cmVjdCBmaWxsPSJub25lIiBoZWlnaHQ9IjYiIHN0eWxlPSJzdHJva2U6I0M4MjkzMDtzdHJva2Utd2lkdGg6MS4wOyIgd2lkdGg9IjYiIHg9IjIwMCIgeT0iOTAwLjk2MDkiLz48dGV4dCBmaWxsPSIjMDAwMDAwIiBmb250LWZhbWlseT0ic2Fucy1zZXJpZiIgZm9udC1zaXplPSIxNCIgbGVuZ3RoQWRqdXN0PSJzcGFjaW5nIiB0ZXh0TGVuZ3RoPSI5MiIgeD0iMjEyIiB5PSI5MDguMjAzMSI+bWF4U3BlZWQ6IGludDwvdGV4dD48cmVjdCBmaWxsPSJub25lIiBoZWlnaHQ9IjYiIHN0eWxlPSJzdHJva2U6I0M4MjkzMDtzdHJva2Utd2lkdGg6MS4wOyIgd2lkdGg9IjYiIHg9IjIwMCIgeT0iOTE1Ljk0NTMiLz48dGV4dCBmaWxsPSIjMDAwMDAwIiBmb250LWZhbWlseT0ic2Fucy1zZXJpZiIgZm9udC1zaXplPSIxNCIgbGVuZ3RoQWRqdXN0PSJzcGFjaW5nIiB0ZXh0TGVuZ3RoPSI5OSIgeD0iMjEyIiB5PSI5MjMuMTg3NSI+d2VpZ2h0OiBkb3VibGU8L3RleHQ+PHJlY3QgZmlsbD0ibm9uZSIgaGVpZ2h0PSI2IiBzdHlsZT0ic3Ryb2tlOiNDODI5MzA7c3Ryb2tlLXdpZHRoOjEuMDsiIHdpZHRoPSI2IiB4PSIyMDAiIHk9IjkzMC45Mjk3Ii8+PHRleHQgZmlsbD0iIzAwMDAwMCIgZm9udC1mYW1pbHk9InNhbnMtc2VyaWYiIGZvbnQtc2l6ZT0iMTQiIGxlbmd0aEFkanVzdD0ic3BhY2luZyIgdGV4dExlbmd0aD0iOTgiIHg9IjIxMiIgeT0iOTM4LjE3MTkiPmhlaWdodDogZG91YmxlPC90ZXh0PjxsaW5lIHN0eWxlPSJzdHJva2U6IzE4MTgxODtzdHJva2Utd2lkdGg6MC41OyIgeDE9IjE5MyIgeDI9Ijk0MyIgeTE9Ijk0My45MjE5IiB5Mj0iOTQzLjkyMTkiLz48ZWxsaXBzZSBjeD0iMjAzIiBjeT0iOTU2LjkxNDEiIGZpbGw9IiM4NEJFODQiIHJ4PSIzIiByeT0iMyIgc3R5bGU9InN0cm9rZTojMDM4MDQ4O3N0cm9rZS13aWR0aDoxLjA7Ii8+PHRleHQgZmlsbD0iIzAwMDAwMCIgZm9udC1mYW1pbHk9InNhbnMtc2VyaWYiIGZvbnQtc2l6ZT0iMTQiIGxlbmd0aEFkanVzdD0ic3BhY2luZyIgdGV4dExlbmd0aD0iNTAxIiB4PSIyMTIiIHk9Ijk2MS4xNTYzIj5zZXRWZWhpY2xlQXR0cmlidXRlcyhjb2xvcjogU3RyaW5nLCBtb2RlbDogU3RyaW5nLCBtYXhTcGVlZDogaW50KTogdm9pZDwvdGV4dD48ZWxsaXBzZSBjeD0iMjAzIiBjeT0iOTcxLjg5ODQiIGZpbGw9IiM4NEJFODQiIHJ4PSIzIiByeT0iMyIgc3R5bGU9InN0cm9rZTojMDM4MDQ4O3N0cm9rZS13aWR0aDoxLjA7Ii8+PHRleHQgZmlsbD0iIzAwMDAwMCIgZm9udC1mYW1pbHk9InNhbnMtc2VyaWYiIGZvbnQtc2l6ZT0iMTQiIGxlbmd0aEFkanVzdD0ic3BhY2luZyIgdGV4dExlbmd0aD0iNzI2IiB4PSIyMTIiIHk9Ijk3Ni4xNDA2Ij5zZXRWZWhpY2xlQXR0cmlidXRlcyhjb2xvcjogU3RyaW5nLCBtb2RlbDogU3RyaW5nLCBtYXhTcGVlZDogaW50LCB3ZWlnaHQ6IGRvdWJsZSwgaGVpZ2h0OiBkb3VibGUpOiB2b2lkPC90ZXh0PjxlbGxpcHNlIGN4PSIyMDMiIGN5PSI5ODYuODgyOCIgZmlsbD0iIzg0QkU4NCIgcng9IjMiIHJ5PSIzIiBzdHlsZT0ic3Ryb2tlOiMwMzgwNDg7c3Ryb2tlLXdpZHRoOjEuMDsiLz48dGV4dCBmaWxsPSIjMDAwMDAwIiBmb250LWZhbWlseT0ic2Fucy1zZXJpZiIgZm9udC1zaXplPSIxNCIgbGVuZ3RoQWRqdXN0PSJzcGFjaW5nIiB0ZXh0TGVuZ3RoPSIxMjgiIHg9IjIxMiIgeT0iOTkxLjEyNSI+Z2V0Q29sb3IoKTogU3RyaW5nPC90ZXh0PjxlbGxpcHNlIGN4PSIyMDMiIGN5PSIxMDAxLjg2NzIiIGZpbGw9IiM4NEJFODQiIHJ4PSIzIiByeT0iMyIgc3R5bGU9InN0cm9rZTojMDM4MDQ4O3N0cm9rZS13aWR0aDoxLjA7Ii8+PHRleHQgZmlsbD0iIzAwMDAwMCIgZm9udC1mYW1pbHk9InNhbnMtc2VyaWYiIGZvbnQtc2l6ZT0iMTQiIGxlbmd0aEFkanVzdD0ic3BhY2luZyIgdGV4dExlbmd0aD0iMTI4IiB4PSIyMTIiIHk9IjEwMDYuMTA5NCI+Z2V0TW9kZWwoKTogU3RyaW5nPC90ZXh0PjxlbGxpcHNlIGN4PSIyMDMiIGN5PSIxMDE2Ljg1MTYiIGZpbGw9IiM4NEJFODQiIHJ4PSIzIiByeT0iMyIgc3R5bGU9InN0cm9rZTojMDM4MDQ4O3N0cm9rZS13aWR0aDoxLjA7Ii8+PHRleHQgZmlsbD0iIzAwMDAwMCIgZm9udC1mYW1pbHk9InNhbnMtc2VyaWYiIGZvbnQtc2l6ZT0iMTQiIGxlbmd0aEFkanVzdD0ic3BhY2luZyIgdGV4dExlbmd0aD0iMTI4IiB4PSIyMTIiIHk9IjEwMjEuMDkzOCI+Z2V0TWF4U3BlZWQoKTogaW50PC90ZXh0PjxlbGxpcHNlIGN4PSIyMDMiIGN5PSIxMDMxLjgzNTkiIGZpbGw9IiM4NEJFODQiIHJ4PSIzIiByeT0iMyIgc3R5bGU9InN0cm9rZTojMDM4MDQ4O3N0cm9rZS13aWR0aDoxLjA7Ii8+PHRleHQgZmlsbD0iIzAwMDAwMCIgZm9udC1mYW1pbHk9InNhbnMtc2VyaWYiIGZvbnQtc2l6ZT0iMTQiIGxlbmd0aEFkanVzdD0ic3BhY2luZyIgdGV4dExlbmd0aD0iMTM1IiB4PSIyMTIiIHk9IjEwMzYuMDc4MSI+Z2V0V2VpZ2h0KCk6IGRvdWJsZTwvdGV4dD48ZWxsaXBzZSBjeD0iMjAzIiBjeT0iMTA0Ni44MjAzIiBmaWxsPSIjODRCRTg0IiByeD0iMyIgcnk9IjMiIHN0eWxlPSJzdHJva2U6IzAzODA0ODtzdHJva2Utd2lkdGg6MS4wOyIvPjx0ZXh0IGZpbGw9IiMwMDAwMDAiIGZvbnQtZmFtaWx5PSJzYW5zLXNlcmlmIiBmb250LXNpemU9IjE0IiBsZW5ndGhBZGp1c3Q9InNwYWNpbmciIHRleHRMZW5ndGg9IjEzNSIgeD0iMjEyIiB5PSIxMDUxLjA2MjUiPmdldEhlaWdodCgpOiBkb3VibGU8L3RleHQ+PGVsbGlwc2UgY3g9IjIwMyIgY3k9IjEwNjEuODA0NyIgZmlsbD0iIzg0QkU4NCIgcng9IjMiIHJ5PSIzIiBzdHlsZT0ic3Ryb2tlOiMwMzgwNDg7c3Ryb2tlLXdpZHRoOjEuMDsiLz48dGV4dCBmaWxsPSIjMDAwMDAwIiBmb250LWZhbWlseT0ic2Fucy1zZXJpZiIgZm9udC1zaXplPSIxNCIgbGVuZ3RoQWRqdXN0PSJzcGFjaW5nIiB0ZXh0TGVuZ3RoPSIyMTkiIHg9IjIxMiIgeT0iMTA2Ni4wNDY5Ij5jYWxjdWxhdGVTYWZldHlSYXRpbmcoKTogZG91YmxlPC90ZXh0PjxlbGxpcHNlIGN4PSIyMDMiIGN5PSIxMDc2Ljc4OTEiIGZpbGw9IiM4NEJFODQiIHJ4PSIzIiByeT0iMyIgc3R5bGU9InN0cm9rZTojMDM4MDQ4O3N0cm9rZS13aWR0aDoxLjA7Ii8+PHRleHQgZmlsbD0iIzAwMDAwMCIgZm9udC1mYW1pbHk9InNhbnMtc2VyaWYiIGZvbnQtc2l6ZT0iMTQiIGxlbmd0aEFkanVzdD0ic3BhY2luZyIgdGV4dExlbmd0aD0iMTc4IiB4PSIyMTIiIHk9IjEwODEuMDMxMyI+c2FmZXR5SW5mb3JtYXRpb24oKTogdm9pZDwvdGV4dD48L2c+PCEtLWxpbmsgVXNlckludGVyZmFjZSB0byBWZWhpY2xlRmFjdG9yeS0tPjxnIGlkPSJsaW5rX1VzZXJJbnRlcmZhY2VfVmVoaWNsZUZhY3RvcnkiPjxwYXRoIGNvZGVMaW5lPSI5NiIgZD0iTTU2OCw3MC4wMiBDNTY4LDkyLjI2IDU2OCwxMTYuMjggNTY4LDEzOC42MSAiIGZpbGw9Im5vbmUiIGlkPSJVc2VySW50ZXJmYWNlLXRvLVZlaGljbGVGYWN0b3J5IiBzdHlsZT0ic3Ryb2tlOiMxODE4MTg7c3Ryb2tlLXdpZHRoOjEuMDsiLz48cG9seWdvbiBmaWxsPSIjMTgxODE4IiBwb2ludHM9IjU2OCwxNDQuNjEsNTcyLDEzNS42MSw1NjgsMTM5LjYxLDU2NCwxMzUuNjEsNTY4LDE0NC42MSIgc3R5bGU9InN0cm9rZTojMTgxODE4O3N0cm9rZS13aWR0aDoxLjA7Ii8+PHBvbHlnb24gZmlsbD0iIzAwMDAwMCIgcG9pbnRzPSI1NzMsMTEyLjk1Nyw1NzUuOTM4OSwxMDMuOTExOSw1NzAuMDYxMSwxMDMuOTExOSw1NzMsMTEyLjk1NyIgc3R5bGU9InN0cm9rZTojMDAwMDAwO3N0cm9rZS13aWR0aDoxLjA7Ii8+PHRleHQgZmlsbD0iIzAwMDAwMCIgZm9udC1mYW1pbHk9InNhbnMtc2VyaWYiIGZvbnQtc2l6ZT0iMTMiIGxlbmd0aEFkanVzdD0ic3BhY2luZyIgdGV4dExlbmd0aD0iMjgiIHg9IjU4MiIgeT0iMTEzLjI4OTEiPlVzZXM8L3RleHQ+PC9nPjwhLS1yZXZlcnNlIGxpbmsgVmVoaWNsZUZhY3RvcnkgdG8gQ2FyRmFjdG9yeS0tPjxnIGlkPSJsaW5rX1ZlaGljbGVGYWN0b3J5X0NhckZhY3RvcnkiPjxwYXRoIGNvZGVMaW5lPSI5NyIgZD0iTTQ5Mi4yNzM3LDIxNi4yMTQ5IEM0NDguNjIzNywyMzguNTM0OSA0MDUuNjcsMjYwLjQ5IDM2MS45NiwyODIuODUgIiBmaWxsPSJub25lIiBpZD0iVmVoaWNsZUZhY3RvcnktYmFja3RvLUNhckZhY3RvcnkiIHN0eWxlPSJzdHJva2U6IzE4MTgxODtzdHJva2Utd2lkdGg6MS4wO3N0cm9rZS1kYXNoYXJyYXk6Ny4wLDcuMDsiLz48cG9seWdvbiBmaWxsPSJub25lIiBwb2ludHM9IjUwOC4zLDIwOC4wMiw0ODkuNTQyLDIxMC44NzI4LDQ5NS4wMDUzLDIyMS41NTcsNTA4LjMsMjA4LjAyIiBzdHlsZT0ic3Ryb2tlOiMxODE4MTg7c3Ryb2tlLXdpZHRoOjEuMDsiLz48dGV4dCBmaWxsPSIjMDAwMDAwIiBmb250LWZhbWlseT0ic2Fucy1zZXJpZiIgZm9udC1zaXplPSIxMyIgbGVuZ3RoQWRqdXN0PSJzcGFjaW5nIiB0ZXh0TGVuZ3RoPSI2NSIgeD0iNDQ0IiB5PSIyNTEuMjg5MSI+SW1wbGVtZW50czwvdGV4dD48L2c+PCEtLXJldmVyc2UgbGluayBWZWhpY2xlRmFjdG9yeSB0byBNb3RvcmN5Y2xlRmFjdG9yeS0tPjxnIGlkPSJsaW5rX1ZlaGljbGVGYWN0b3J5X01vdG9yY3ljbGVGYWN0b3J5Ij48cGF0aCBjb2RlTGluZT0iOTgiIGQ9Ik01NjgsMjI2LjAyIEM1NjgsMjQ4LjI2IDU2OCwyNjAuMjggNTY4LDI4Mi42MSAiIGZpbGw9Im5vbmUiIGlkPSJWZWhpY2xlRmFjdG9yeS1iYWNrdG8tTW90b3JjeWNsZUZhY3RvcnkiIHN0eWxlPSJzdHJva2U6IzE4MTgxODtzdHJva2Utd2lkdGg6MS4wO3N0cm9rZS1kYXNoYXJyYXk6Ny4wLDcuMDsiLz48cG9seWdvbiBmaWxsPSJub25lIiBwb2ludHM9IjU2OCwyMDguMDIsNTYyLDIyNi4wMiw1NzQsMjI2LjAyLDU2OCwyMDguMDIiIHN0eWxlPSJzdHJva2U6IzE4MTgxODtzdHJva2Utd2lkdGg6MS4wOyIvPjx0ZXh0IGZpbGw9IiMwMDAwMDAiIGZvbnQtZmFtaWx5PSJzYW5zLXNlcmlmIiBmb250LXNpemU9IjEzIiBsZW5ndGhBZGp1c3Q9InNwYWNpbmciIHRleHRMZW5ndGg9IjY1IiB4PSI1NjkiIHk9IjI1MS4yODkxIj5JbXBsZW1lbnRzPC90ZXh0PjwvZz48IS0tcmV2ZXJzZSBsaW5rIFZlaGljbGVGYWN0b3J5IHRvIEJpY3ljbGVGYWN0b3J5LS0+PGcgaWQ9ImxpbmtfVmVoaWNsZUZhY3RvcnlfQmljeWNsZUZhY3RvcnkiPjxwYXRoIGNvZGVMaW5lPSI5OSIgZD0iTTY0NC42NjU3LDIxNi4xMTc3IEM2ODguOTc1NywyMzguNDM3NyA3MzIuNzcsMjYwLjQ5IDc3Ny4xNCwyODIuODUgIiBmaWxsPSJub25lIiBpZD0iVmVoaWNsZUZhY3RvcnktYmFja3RvLUJpY3ljbGVGYWN0b3J5IiBzdHlsZT0ic3Ryb2tlOiMxODE4MTg7c3Ryb2tlLXdpZHRoOjEuMDtzdHJva2UtZGFzaGFycmF5OjcuMCw3LjA7Ii8+PHBvbHlnb24gZmlsbD0ibm9uZSIgcG9pbnRzPSI2MjguNTksMjA4LjAyLDY0MS45NjY0LDIyMS40NzYzLDY0Ny4zNjQ5LDIxMC43NTkxLDYyOC41OSwyMDguMDIiIHN0eWxlPSJzdHJva2U6IzE4MTgxODtzdHJva2Utd2lkdGg6MS4wOyIvPjx0ZXh0IGZpbGw9IiMwMDAwMDAiIGZvbnQtZmFtaWx5PSJzYW5zLXNlcmlmIiBmb250LXNpemU9IjEzIiBsZW5ndGhBZGp1c3Q9InNwYWNpbmciIHRleHRMZW5ndGg9IjY1IiB4PSI3MTMiIHk9IjI1MS4yODkxIj5JbXBsZW1lbnRzPC90ZXh0PjwvZz48IS0tcmV2ZXJzZSBsaW5rIENhciB0byBWZWhpY2xlLS0+PGcgaWQ9ImxpbmtfQ2FyX1ZlaGljbGUiPjxwYXRoIGNvZGVMaW5lPSIxMDAiIGQ9Ik0zNzUuNDg2LDc2Ni44MDk0IEM0MDAuODM2LDc5MS44NDk0IDQxMy44NSw4MDQuNzEgNDM4LjI0LDgyOC44ICIgZmlsbD0ibm9uZSIgaWQ9IkNhci1iYWNrdG8tVmVoaWNsZSIgc3R5bGU9InN0cm9rZTojMTgxODE4O3N0cm9rZS13aWR0aDoxLjA7c3Ryb2tlLWRhc2hhcnJheTo3LjAsNy4wOyIvPjxwb2x5Z29uIGZpbGw9Im5vbmUiIHBvaW50cz0iMzYyLjY4LDc1NC4xNiwzNzEuMjY5NSw3NzEuMDc4LDM3OS43MDI0LDc2Mi41NDA3LDM2Mi42OCw3NTQuMTYiIHN0eWxlPSJzdHJva2U6IzE4MTgxODtzdHJva2Utd2lkdGg6MS4wOyIvPjx0ZXh0IGZpbGw9IiMwMDAwMDAiIGZvbnQtZmFtaWx5PSJzYW5zLXNlcmlmIiBmb250LXNpemU9IjEzIiBsZW5ndGhBZGp1c3Q9InNwYWNpbmciIHRleHRMZW5ndGg9IjY1IiB4PSI0MDUiIHk9Ijc5Ny4yODkxIj5JbXBsZW1lbnRzPC90ZXh0PjwvZz48IS0tcmV2ZXJzZSBsaW5rIE1vdG9yY3ljbGUgdG8gVmVoaWNsZS0tPjxnIGlkPSJsaW5rX01vdG9yY3ljbGVfVmVoaWNsZSI+PHBhdGggY29kZUxpbmU9IjEwMSIgZD0iTTU2OCw3NzIuMTYgQzU2OCw3OTcuMiA1NjgsODA0LjcxIDU2OCw4MjguOCAiIGZpbGw9Im5vbmUiIGlkPSJNb3RvcmN5Y2xlLWJhY2t0by1WZWhpY2xlIiBzdHlsZT0ic3Ryb2tlOiMxODE4MTg7c3Ryb2tlLXdpZHRoOjEuMDtzdHJva2UtZGFzaGFycmF5OjcuMCw3LjA7Ii8+PHBvbHlnb24gZmlsbD0ibm9uZSIgcG9pbnRzPSI1NjgsNzU0LjE2LDU2Miw3NzIuMTYsNTc0LDc3Mi4xNiw1NjgsNzU0LjE2IiBzdHlsZT0ic3Ryb2tlOiMxODE4MTg7c3Ryb2tlLXdpZHRoOjEuMDsiLz48dGV4dCBmaWxsPSIjMDAwMDAwIiBmb250LWZhbWlseT0ic2Fucy1zZXJpZiIgZm9udC1zaXplPSIxMyIgbGVuZ3RoQWRqdXN0PSJzcGFjaW5nIiB0ZXh0TGVuZ3RoPSI2NSIgeD0iNTY5IiB5PSI3OTcuMjg5MSI+SW1wbGVtZW50czwvdGV4dD48L2c+PCEtLXJldmVyc2UgbGluayBCaWN5Y2xlIHRvIFZlaGljbGUtLT48ZyBpZD0ibGlua19CaWN5Y2xlX1ZlaGljbGUiPjxwYXRoIGNvZGVMaW5lPSIxMDIiIGQ9Ik03NzcuNTgxLDcwNy44NzMgQzc0Mi4yNDEsNzQ5Ljg3MyA3MTIuODUsNzg0LjgyIDY3NS44Myw4MjguODIgIiBmaWxsPSJub25lIiBpZD0iQmljeWNsZS1iYWNrdG8tVmVoaWNsZSIgc3R5bGU9InN0cm9rZTojMTgxODE4O3N0cm9rZS13aWR0aDoxLjA7c3Ryb2tlLWRhc2hhcnJheTo3LjAsNy4wOyIvPjxwb2x5Z29uIGZpbGw9Im5vbmUiIHBvaW50cz0iNzg5LjE3LDY5NC4xLDc3Mi45OSw3MDQuMDEsNzgyLjE3Miw3MTEuNzM2LDc4OS4xNyw2OTQuMSIgc3R5bGU9InN0cm9rZTojMTgxODE4O3N0cm9rZS13aWR0aDoxLjA7Ii8+PHRleHQgZmlsbD0iIzAwMDAwMCIgZm9udC1mYW1pbHk9InNhbnMtc2VyaWYiIGZvbnQtc2l6ZT0iMTMiIGxlbmd0aEFkanVzdD0ic3BhY2luZyIgdGV4dExlbmd0aD0iNjUiIHg9IjcwNiIgeT0iNzk3LjI4OTEiPkltcGxlbWVudHM8L3RleHQ+PC9nPjwhLS1saW5rIENhckZhY3RvcnkgdG8gQ2FyLS0+PGcgaWQ9ImxpbmtfQ2FyRmFjdG9yeV9DYXIiPjxwYXRoIGNvZGVMaW5lPSIxMDMiIGQ9Ik0yODkuOTMsMzQ2LjA2IEMyODIuMjgsMzY1LjQ0IDI3My45MjQ4LDM4Ni42MTk4IDI2Mi42MDQ4LDQxNS4yNjk4ICIgZmlsbD0ibm9uZSIgaWQ9IkNhckZhY3RvcnktdG8tQ2FyIiBzdHlsZT0ic3Ryb2tlOiMxODE4MTg7c3Ryb2tlLXdpZHRoOjEuMDtzdHJva2UtZGFzaGFycmF5OjcuMCw3LjA7Ii8+PHBvbHlnb24gZmlsbD0iIzE4MTgxOCIgcG9pbnRzPSIyNjAuNCw0MjAuODUsMjY3LjQyNzQsNDEzLjk0OTYsMjYyLjIzNzMsNDE2LjE5OTgsMjU5Ljk4NzEsNDExLjAwOTgsMjYwLjQsNDIwLjg1IiBzdHlsZT0ic3Ryb2tlOiMxODE4MTg7c3Ryb2tlLXdpZHRoOjEuMDsiLz48dGV4dCBmaWxsPSIjMDAwMDAwIiBmb250LWZhbWlseT0ic2Fucy1zZXJpZiIgZm9udC1zaXplPSIxMyIgbGVuZ3RoQWRqdXN0PSJzcGFjaW5nIiB0ZXh0TGVuZ3RoPSI0OCIgeD0iMjc4IiB5PSIzODkuMjg5MSI+Q3JlYXRlczwvdGV4dD48L2c+PCEtLWxpbmsgTW90b3JjeWNsZUZhY3RvcnkgdG8gTW90b3JjeWNsZS0tPjxnIGlkPSJsaW5rX01vdG9yY3ljbGVGYWN0b3J5X01vdG9yY3ljbGUiPjxwYXRoIGNvZGVMaW5lPSIxMDQiIGQ9Ik01NjgsMzQ2LjA2IEM1NjgsMzY1LjQ0IDU2OCwzODYuMiA1NjgsNDE0Ljg1ICIgZmlsbD0ibm9uZSIgaWQ9Ik1vdG9yY3ljbGVGYWN0b3J5LXRvLU1vdG9yY3ljbGUiIHN0eWxlPSJzdHJva2U6IzE4MTgxODtzdHJva2Utd2lkdGg6MS4wO3N0cm9rZS1kYXNoYXJyYXk6Ny4wLDcuMDsiLz48cG9seWdvbiBmaWxsPSIjMTgxODE4IiBwb2ludHM9IjU2OCw0MjAuODUsNTcyLDQxMS44NSw1NjgsNDE1Ljg1LDU2NCw0MTEuODUsNTY4LDQyMC44NSIgc3R5bGU9InN0cm9rZTojMTgxODE4O3N0cm9rZS13aWR0aDoxLjA7Ii8+PHRleHQgZmlsbD0iIzAwMDAwMCIgZm9udC1mYW1pbHk9InNhbnMtc2VyaWYiIGZvbnQtc2l6ZT0iMTMiIGxlbmd0aEFkanVzdD0ic3BhY2luZyIgdGV4dExlbmd0aD0iNDgiIHg9IjU2OSIgeT0iMzg5LjI4OTEiPkNyZWF0ZXM8L3RleHQ+PC9nPjwhLS1saW5rIEJpY3ljbGVGYWN0b3J5IHRvIEJpY3ljbGUtLT48ZyBpZD0ibGlua19CaWN5Y2xlRmFjdG9yeV9CaWN5Y2xlIj48cGF0aCBjb2RlTGluZT0iMTA1IiBkPSJNODQyLjUxLDM0Ni4wNiBDODQ3LjMzLDM3OC43MyA4NTQuMzc0Myw0MjYuNDM0MiA4NjEuNTA0Myw0NzQuNzY0MiAiIGZpbGw9Im5vbmUiIGlkPSJCaWN5Y2xlRmFjdG9yeS10by1CaWN5Y2xlIiBzdHlsZT0ic3Ryb2tlOiMxODE4MTg7c3Ryb2tlLXdpZHRoOjEuMDtzdHJva2UtZGFzaGFycmF5OjcuMCw3LjA7Ii8+PHBvbHlnb24gZmlsbD0iIzE4MTgxOCIgcG9pbnRzPSI4NjIuMzgsNDgwLjcsODY1LjAyMzYsNDcxLjIxMjYsODYxLjY1MDMsNDc1Ljc1MzUsODU3LjEwOTMsNDcyLjM4MDIsODYyLjM4LDQ4MC43IiBzdHlsZT0ic3Ryb2tlOiMxODE4MTg7c3Ryb2tlLXdpZHRoOjEuMDsiLz48dGV4dCBmaWxsPSIjMDAwMDAwIiBmb250LWZhbWlseT0ic2Fucy1zZXJpZiIgZm9udC1zaXplPSIxMyIgbGVuZ3RoQWRqdXN0PSJzcGFjaW5nIiB0ZXh0TGVuZ3RoPSI0OCIgeD0iODQ5IiB5PSIzODkuMjg5MSI+Q3JlYXRlczwvdGV4dD48L2c+PCEtLVNSQz1bbFBSSFJqZW01OFJsVUdmVktoTmIwVDFLb1I1U1kxaDhQRDlNTEpMNW5YbjJMMUROWmNjN2podHh4M0lLWDNJMVFqTmttWmRfRVNWLV9TTDRJOXhkWTcyRFZsS0drYnBuNzYtQ01kRUoyaGU2ZEswY2pmeGNKc2NNM0Q1U0FHYXlzbWJKeFY0YVJ1R3BhbVBBRkJhZ1E2SWYxNjZxb2I4bkN0b1VvakhpWVNmaUgxdWdGSXdVRGktNHNyTm1VV3hJUDZMNjZoVzE3UXJ1WGItaTk4NlF3RktLNFJ3WjM4emVKMzJCeHdhXzZhVDNqNTJSa09KM3hCWVBsT3QyMk92eTRqQzlQSUN3OUctbm5fMkRGbnQ1Q3RuRGV1VU9zVkhxTDJsb01VcFhxUW4zQ090eUUwWjlKVDZDVFlYZkc0ZDRtZ2JUbUlwMmRYX3VMYVIyZ09xNXhMS1U5WlV0dC1zVXhBOW5rc3BsSUJUY3RBcXZqczNycHpvM3U1OWlmM3NDNkwtMnNKOEJNOVJxcHdoUWxDWnVzTDlmbnZfQU5GZjVmT2xVZHJ2RjU5bkViNTVRUjhNNEZRd1RrOHIxaGk1T0trU1ZhMWZmQmpvUzVXMkYwU2cwd3ZTS05seUJlZkNtMlhidjgwN2o4QktZUVc4eGZpNjRIaDU1aTlsMEp5MEtDS21ZRnZtVUx2d0VEUUVPdFZkcV9ZWVkzS1RFYVh1M1RhX09MdEJoZk5MZTZJcFRGUVhxV3FhRmY2bTQwbVRBMnprckFBRk54Yk84TU9WMTdXczJaZEpXX0VkOGJuWXI2Ylhrek1sU0lwRnhRWW92MDdHN2d6SXNsVVJFak1yWHZCYWVOZnFvdXloQW54dGxqcGJlX3hyN0tSSmNRVFJkc2pxNkN3RmpTWHZfRDh4QnRiZ1Y3Qko3dmZFNWZMcWRMXzV2UmpvclhUeEFveW1STTQ5OWZOVlJTZTZyTWUyaTFWWkZzSkYwT2VZaWlfaXhnN2ctZ3lGOFVHd2M3OEVEeEpKVjZDWnhqTGFOZzNSOV9ncEVzVGR4MVFxa0s3dDE1d1ktdENnZTEwbm5aUHJfeG1RdXdDSnJScVJCQ0l4bnZlc0J0WFZUd3kzUXlGWTN5Qi1ZTmFWcnlsQmc0RmNYZXBiN0x4czMtQlZWV3E2THMyN29yeXlJcmYyUF80RGphek1aOUdVS3JsSmtzeDRHeExZaVBJbF9zRXNZdFZOT2hnWmlScDJ1QWh2Tlh1V0t4cWJySGJMSmNSb043Y3A0d05SM3RxTF8wRzAwXS0tPjwvZz48L3N2Zz4=;" parent="1" vertex="1">
            <mxGeometry x="-620" y="50" width="1010" height="1093" as="geometry" />
          </mxCell>
        </UserObject>
      </root>
    </mxGraphModel>
  </diagram>
</mxfile>
